<svg xmlns="http://www.w3.org/2000/svg" xmlns:xlink="http://www.w3.org/1999/xlink" width="100%" height="100%" viewBox="0 0 200 77.44914870525142" class="css-1j8o68"><g featurekey="nameFeature-0adad" fill="#000" transform="matrix(2.1390096815352524,0,0,2.1390096815352524,8.816303780107871,-31.143981860717457)"><path d="M14.6 25.880000000000003 c0.04 0.08 0.12 0.12 0.2 0.12 c-0.8 1.16 -1.6 2.32 -2.88 3 c-0.16 0.4 -0.64 0.52 -1.16 0.84 c1.4 1.2 2.68 2.48 3.16 4.6 c0.28 0.4 0.36 0.68 0.36 1.4 c0.16 0.32 0.08 0.6 0.2 1 c0 0.2 -0.16 0.2 -0.12 0.4 c0.16 0.44 0.16 0.76 -0.04 1.08 c-0.04 0.2 0.12 0.16 0.08 0.28 c-0.04 0.2 -0.04 0.32 0 0.48 c-0.2 1.12 -0.48 2.12 -0.84 3.28 c-0.16 0.2 -0.28 0.32 -0.24 0.64 c-0.24 0.24 -0.56 0.68 -0.6 1 c-0.12 0.24 -0.28 0.4 -0.52 0.56 c0 0.08 0 0.2 0.04 0.2 c-0.68 0.96 -1.44 1.84 -2.24 2.68 c-0.08 0 -0.12 -0.04 -0.2 -0.04 c-0.12 0.08 -0.08 0.28 -0.12 0.4 c-1.92 1.36 -3.68 2.8 -6.6 2.96 c-0.08 0.04 -0.08 -0.08 -0.08 -0.16 c-0.36 0.12 -0.44 0 -0.84 0.08 c-2.16 -0.68 -3.48 -2.24 -4.12 -4.48 c0.16 -0.44 0.08 -0.72 0.2 -1.2 c-0.16 0.12 -0.4 0.24 -0.68 0.28 c-1.04 -0.4 -1.72 -1.12 -1.68 -2.6 c1.8 -6.72 5.28 -12.72 8.68 -18.28 c0.16 -0.88 0.2 -2 0.2 -3.08 c0.04 -0.12 -0.08 -0.08 -0.12 -0.12 c0 -0.08 0.12 -0.04 0.12 -0.12 c0.08 -0.68 -0.16 -1.16 -0.32 -1.76 c0.2 -0.8 1.48 -0.44 1.76 0.04 c0.08 0.72 0.4 1.4 0.28 2.2 c1.68 -2 3.4 -3.96 5.48 -5.56 c0.96 -0.48 1.84 -1.24 3.12 -1.2 c0.16 -0.04 0.12 0.12 0.24 0.12 c0.64 -0.12 1.16 0.24 1.68 0.4 c0.4 0.68 0.92 1.36 1 2.16 c-0.08 1.4 -0.28 2.48 -0.72 3.8 c-0.24 0.48 -0.32 1.36 -0.76 1.56 c0.04 0.36 -0.4 0.48 -0.36 1.12 c-0.2 0.04 -0.16 0.28 -0.36 0.32 c-0.2 0.64 -0.6 1.08 -0.92 1.6 c-0.08 0.12 -0.12 -0.04 -0.28 0 z M12.96 15.8 c0 -0.08 0.16 -0.04 0.16 -0.12 c-0.08 -0.12 -0.28 0.08 -0.16 0.12 z M4.88 30.68 c-0.08 0.04 0 0.08 0 0 c0.08 0.28 -0.12 0.8 -0.32 1.12 c0.04 0.52 -0.24 1.2 -0.52 1.68 c0.08 0.6 -0.6 0.96 -0.48 1.72 c-0.16 0.32 -0.44 0.8 -0.36 1.2 c1.6 -1.48 3.68 -2.72 6.04 -3.12 c0.04 0.12 0.28 0.04 0.32 0.16 c-1.64 0.36 -2.88 1.16 -3.96 2.12 c-0.08 -0.04 -0.04 -0.12 -0.12 -0.12 c-0.12 0.28 -0.52 0.28 -0.52 0.68 c-0.36 -0.08 -0.44 0.44 -0.8 0.48 c-0.08 -0.08 -0.08 -0.2 -0.16 -0.08 c-0.04 0.28 0.16 0.24 0.24 0.28 c-0.2 0.12 -0.6 0.12 -0.64 0.44 c0.04 0.16 0.16 -0.12 0.16 0.04 c-0.12 0.2 -0.36 0.6 -0.56 0.44 c0 0.24 0 0.24 -0.2 0.16 c-0.12 0.12 0.04 0.16 0.04 0.32 c-0.16 0.16 -0.44 0.36 -0.48 0.56 c-0.36 0.12 -0.36 0.68 -0.64 0.76 c-0.72 1.36 -1.64 2.92 -2.16 4.76 c-0.08 0.52 -0.24 1.2 -0.32 1.76 c0.12 0.04 0.04 0.4 0.16 0.6 c-0.04 0.32 0 0.4 0 0.76 c0.04 0.2 0.12 0.36 0.12 0.64 c0.2 0.12 0.28 0.36 0.4 0.6 c0.24 0.32 0.8 0.32 1 0.68 c0.44 0.04 0.6 0.04 1 0.08 c0.16 0.04 0.04 -0.16 0.16 -0.16 l0 0.16 c0.32 -0.04 0.68 0 0.84 -0.16 c0.04 0.04 0.08 -0.04 0 0 c0.08 -0.16 0.32 -0.12 0.4 0 c0.2 -0.32 0.72 -0.32 1.16 -0.44 c0.12 -0.2 0.36 -0.28 0.6 -0.28 c0.12 -0.12 0.28 -0.2 0.4 -0.32 c0.8 -0.32 1.52 -0.8 2.12 -1.36 c0.04 0 0.08 0.04 0.12 0.04 c0.88 -0.84 1.72 -1.72 2.56 -2.56 c1.36 -2 2.44 -4.44 2.64 -7.2 c-0.04 -0.92 -0.04 -1.8 -0.2 -2.84 c-0.08 -0.12 -0.16 -0.28 -0.12 -0.52 c-0.6 -1.32 -1.12 -2.72 -2.52 -3.24 c-0.16 -0.24 -0.4 -0.36 -0.68 -0.48 c-0.08 -0.32 -0.32 -0.52 -0.52 -0.72 c0.04 -0.2 -0.04 -0.28 -0.08 -0.36 c0.08 -0.04 0.08 -0.16 0.08 -0.28 c1.04 -0.56 2.2 -1.2 3.08 -2.16 c0.76 -0.8 1.4 -1.92 2.08 -2.92 c0.32 -0.52 0.6 -1.04 0.84 -1.56 c0.76 -1.52 1.52 -3.8 1.2 -5.92 c-0.08 -0.16 -0.2 -0.28 -0.28 -0.44 c-0.8 -0.12 -1.16 0.32 -1.88 0.36 c-0.16 0.28 -0.64 0.24 -0.76 0.56 c-0.68 0.2 -0.92 0.76 -1.52 1.04 c-0.88 0.96 -1.96 1.68 -2.64 2.8 c-1.16 1.12 -2.08 2.44 -2.96 3.84 c0 0.6 -0.16 1.04 -0.28 1.56 c0 0.2 0 0.36 0.04 0.48 c-0.28 0.32 -0.08 1.32 -0.48 1.68 c-0.08 0.6 -0.2 1.88 -0.64 2.6 l0 0.08 z M12.08 16.36 c-0.24 -0.04 -0.04 0.16 0 0 c0.24 -0.08 0.4 -0.2 0.52 -0.4 c-0.24 0.08 -0.4 0.2 -0.52 0.4 z M11.36 17.16 c0.04 -0.24 0.32 -0.24 0.4 -0.48 c-0.16 -0.08 -0.76 0.32 -0.4 0.48 z M11.12 17.12 c-0.16 0.04 -0.28 0.16 -0.36 0.28 c0.16 -0.04 0.28 -0.16 0.36 -0.28 c0.04 -0.04 -0.04 -0.08 0 0 z M10.64 17.72 c0.04 -0.16 -0.16 -0.04 -0.2 -0.12 c-0.04 0.16 0.04 0.16 0.2 0.12 z M10 18.28 c-0.32 -0.04 -0.4 0.56 -0.8 0.6 c-0.12 0.36 -0.48 0.44 -0.6 0.84 c0.52 -0.44 0.92 -0.96 1.4 -1.44 c0.04 0 0.04 0.04 0.08 0.04 c0.08 -0.24 0.28 -0.28 0.36 -0.48 c-0.24 0.04 -0.44 0.12 -0.44 0.44 z M16.88 19.6 c0 -0.04 -0.04 -0.12 0.04 -0.12 c0 0 0 0.04 0.04 0.04 l0 -0.16 l-0.16 0 c-0.04 0.08 -0.04 0.24 0.08 0.24 z M8.04 20.48 c0.16 -0.24 0.52 -0.48 0.48 -0.72 c-0.12 0.24 -0.52 0.44 -0.48 0.72 z M16.8 19.88 l0 0.12 c0.12 0.08 0.16 -0.16 0.08 -0.16 c0 0.04 -0.04 0.08 -0.08 0.04 z M16.8 20.24 c0.04 -0.08 0.12 -0.12 0 -0.16 c0 0.08 -0.08 0.12 0 0.16 z M16.76 20.52 c0.12 -0.28 -0.16 -0.16 0 0 l0 0 z M7.68 20.8 c-0.08 0.08 -0.28 0.24 -0.16 0.36 c0.04 -0.12 0.28 -0.24 0.16 -0.36 c0.12 -0.04 0.2 -0.12 0.24 -0.24 c-0.16 0 -0.2 0.12 -0.24 0.24 z M16.52 21 c0.12 0 0.2 -0.4 0.04 -0.32 c0.04 0.12 -0.08 0.16 -0.04 0.32 z M16.08 20.92 c0.04 0 0 -0.04 0 0 l0 0 z M16.04 21 c0.08 0.2 0.08 -0.2 0 0 l0 0 z M7.36 21.32 c0 -0.04 0.08 -0.08 0 -0.12 c0 0.04 -0.08 0.08 0 0.12 z M15.8 21.88 c0.12 -0.04 0.28 -0.44 0.12 -0.44 c0.04 0.2 -0.12 0.24 -0.12 0.44 z M16.4 21.96 c-0.04 -0.08 0.12 -0.24 0 -0.28 c-0.04 0.04 -0.12 0.24 0 0.28 z M16.24 22.12 c0.04 0.16 0.04 -0.2 0 0 l0 0 z M15.52 22.76 c0.04 -0.08 0.12 -0.16 0.16 -0.24 c-0.04 0 -0.08 0 -0.08 -0.04 l-0.08 0 c0.08 0.16 -0.12 0.24 0 0.28 z M15.36 23.12 c0 -0.12 0.08 -0.16 0.12 -0.24 c-0.16 -0.08 -0.2 0.2 -0.12 0.24 z M15.28 23.2 c-0.04 0.28 0.2 0.04 0 0 l0 0 z M15.08 23.68 c-0.12 0 0.04 0.2 0 0 c0.16 0.08 0.12 -0.24 0.04 -0.24 c0.04 0.16 -0.04 0.12 -0.04 0.24 z M14.88 24.16 c0.04 -0.12 0.16 -0.12 0.16 -0.28 c-0.12 0 -0.24 0.24 -0.16 0.28 z M15.24 24.28 c0.08 0.16 0.12 -0.2 0 0 l0 0 z M14.64 24.52 c-0.12 0 -0.12 0.16 -0.16 0.28 c0.12 -0.04 0.12 -0.16 0.16 -0.28 c0.12 -0.04 0.08 -0.2 0.16 -0.24 c-0.16 -0.04 -0.08 0.12 -0.16 0.24 z M-0.16 33.32 l-0.36 0.6 c0.12 0 0.08 0.12 0.2 0.08 c0.24 -0.28 0.32 -0.6 0.44 -1 c0.44 -0.44 0.68 -1.44 1.2 -2 c-0.04 -0.08 -0.24 -0.2 -0.12 -0.24 c0.08 0 0.04 0.08 0.12 0.08 c0.48 -0.8 1 -1.72 1.44 -2.68 c0.36 -0.44 0.88 -1.16 0.84 -1.64 c0.08 0.04 0.08 0.12 0.16 0.08 c0.12 -0.32 0.48 -0.64 0.44 -1 l0.2 0 c0 -0.24 0 -0.32 0.08 -0.56 c-1.76 2.64 -3.24 5.36 -4.64 8.28 z M14.24 25.240000000000002 c0 0 -0.04 -0.04 0 0 l0 0 z M14.4 25.6 c-0.04 0.28 0.04 -0.2 0 0 l0 0 z M4.16 26.52 c-0.04 0 -0.12 0 -0.12 0.04 c0.04 0 0.12 0 0.12 -0.04 z M3.52 28.119999999999997 c-0.36 0.44 -0.68 1 -0.92 1.6 c-0.04 0.04 -0.12 0.08 -0.2 0.08 c0 0.36 -0.24 0.24 -0.16 0.6 c-0.04 0 -0.08 -0.04 -0.16 -0.04 c0 0.44 -0.4 0.6 -0.44 1.16 c-0.12 -0.04 -0.16 0 -0.24 0.04 c-0.04 0.48 -0.44 0.76 -0.48 1.12 c0.04 -0.12 0 -0.16 -0.08 -0.16 c0 0.52 -0.32 0.72 -0.4 1.16 c-0.16 -0.08 -0.12 -0.04 -0.24 0.04 c0 -0.08 0.04 -0.2 -0.04 -0.2 c0 0.08 -0.16 0.28 -0.04 0.36 c0.04 -0.04 0.04 -0.16 0.08 -0.16 c-0.12 0.84 -0.48 0.96 -0.56 1.76 c-0.36 0.08 -0.28 0.32 -0.4 0.64 c-0.16 -0.2 -0.16 0.32 -0.28 0.04 c-0.12 0.16 0.04 0.28 0.04 0.44 c-0.2 0.24 -0.28 0.64 -0.28 1.04 c-0.28 0.36 -0.52 0.72 -0.64 1.2 c-0.04 -0.04 -0.04 0 -0.12 0 c0.04 0.32 0 0.36 -0.2 0.48 c0.24 0.24 0.08 0.8 -0.2 0.72 c0.16 0.4 -0.28 0.96 -0.12 1.52 c-0.12 0.08 -0.16 -0.08 -0.2 0.08 c-0.08 0.68 -0.24 1.36 -0.16 2.12 c2.52 -2.44 3.68 -6.32 5.16 -9.64 c0.68 -2.2 1.24 -4.24 1.76 -6.24 c0.04 -0.16 -0.08 -0.16 -0.04 -0.24 s0.12 -0.16 0.08 -0.36 c-0.12 0.16 -0.48 0.44 -0.52 0.84 z M13.16 27.28 c-0.04 0.28 0.2 0.04 0 0 l0 0 z M5.12 27.560000000000002 c-0.08 -0.08 0.12 -0.16 0 -0.16 c-0.04 0 -0.12 0.16 0 0.16 z M3.36 27.72 c0.16 0 0.12 -0.12 0.16 -0.2 c-0.12 0 -0.12 0.12 -0.16 0.2 z M4.96 28 c0.04 0.2 0.04 -0.2 0 0 l0 0 z M3.08 28.36 c-0.04 0 -0.08 0 -0.08 0.04 c0.04 0 0.08 0 0.08 -0.04 z M4.8 28.92 c0.16 -0.08 0.16 -0.56 0.08 -0.56 c-0.04 0.16 -0.04 0.28 -0.08 0.56 z M4.48 28.48 c-0.04 0 -0.08 0 -0.08 0.04 c0.04 0 0.08 0 0.08 -0.04 z M4.32 28.759999999999998 c0.08 0.2 0.08 -0.16 0 0 l0 0 z M4.28 29.119999999999997 c-0.12 0.04 0.08 0.24 0 0 c0.16 0 -0.04 -0.2 0 0 z M4.2 29.36 c0.08 0.16 0.12 -0.2 0 0 l0 0 z M4.56 30.119999999999997 c0.04 -0.12 0.24 -0.44 0 -0.48 c0.04 0.16 -0.12 0.36 0 0.48 z M4 30.2 l-0.04 0 c0.04 0.28 -0.28 0.56 -0.04 0.68 c0 -0.24 0.08 -0.4 0.08 -0.68 c0.08 0 0.16 -0.32 0.04 -0.36 c-0.04 0.12 -0.08 0.2 -0.04 0.36 z M2.08 29.92 c0.08 0.16 0.12 -0.2 0 0 l0 0 z M2 30.119999999999997 c0.04 0.2 0.04 -0.2 0 0 l0 0 z M1.68 30.68 c0.04 0.04 0 0 0 0 l0 0 z M4.08 31.64 c0.16 -0.32 0.4 -0.68 0.24 -0.96 c-0.04 0.4 -0.28 0.6 -0.24 0.96 z M3.76 31.36 c0 -0.12 0.2 -0.28 0.04 -0.36 c0 0.08 -0.16 0.28 -0.04 0.36 z M1.28 31.560000000000002 c0.04 0.2 0.04 -0.2 0 0 l0 0 z M3.6 31.84 c0.04 -0.04 0.12 -0.16 0 -0.2 c0.08 0.12 -0.12 0.16 0 0.2 z M1.2 31.84 c0.08 0.16 0.12 -0.2 0 0 l0 0 z M4.08 31.8 c-0.04 0 -0.08 0 -0.08 0.04 c0.04 0 0.08 0 0.08 -0.04 z M3.56 32 c0.04 0.04 0 -0.04 0 0 l0 0 z M4.04 32.28 c-0.04 -0.08 0 -0.24 -0.08 -0.28 c0.04 0.08 -0.08 0.32 0.08 0.28 z M3.52 32.32 c-0.04 -0.08 0.04 -0.24 -0.04 -0.24 c-0.04 0.12 -0.12 0.2 0.04 0.24 z M3.56 33.44 c0.24 -0.24 0.4 -0.84 0.28 -1.12 c0.04 0.36 -0.32 0.76 -0.28 1.12 z M3.32 32.72 c-0.04 0.28 0.04 -0.2 0 0 l0 0 z M0.6 32.8 c0.04 0.2 0.04 -0.2 0 0 l0 0 z M3.08 33.519999999999996 l-0.04 0 c0 0.24 -0.16 0.28 -0.16 0.52 c0.16 -0.08 0.2 -0.28 0.2 -0.52 c0.08 -0.04 0.12 -0.12 0.12 -0.24 c-0.16 -0.04 -0.08 0.16 -0.12 0.24 z M3.52 33.68 c0.08 0.16 0.12 -0.2 0 0 l0 0 z M8.12 33.68 c-0.12 0.16 0.16 -0.12 0 0 l0 0 z M3.12 34.6 c0.2 -0.12 0.44 -0.68 0.24 -0.84 c0 0.32 -0.32 0.56 -0.24 0.84 z M7.68 33.88 c0 0 0.04 0.04 0.08 0.04 c-0.04 -0.08 0.28 -0.08 0.08 -0.16 c0 0.08 -0.08 0 -0.16 0 l0 0.12 z M-1.24 35.480000000000004 l-0.04 0 c-0.08 0.44 -0.28 0.72 -0.48 1.04 c-0.32 1.52 -1.2 2.92 -1.48 4.64 c-0.12 0 -0.04 0.16 -0.04 0.24 c-0.08 0.04 -0.12 0.12 -0.12 0.24 c0.16 0.04 0.08 -0.16 0.12 -0.24 c0.08 -0.04 0.12 -0.16 0.04 -0.24 c0.56 -1.84 1.4 -3.8 2.12 -5.48 l0.04 0 c0.12 -0.64 0.92 -1.24 0.48 -1.76 c-0.04 0.52 -0.44 1.04 -0.64 1.56 z M7.44 33.96 c0.2 0.04 0.04 -0.16 0 0 c-0.08 -0.12 -0.2 0 -0.24 0.08 c0.12 0.04 0.24 0.04 0.24 -0.08 z M6.96 34.2 c0.08 0 0.12 -0.04 0.16 -0.08 c-0.08 0 -0.16 -0.04 -0.16 0.08 z M-0.28 34.44 c0.12 0.12 0.4 -0.24 0.16 -0.28 c0 0.12 -0.12 0.16 -0.16 0.28 z M6.64 34.28 c-0.12 0.04 -0.28 0.08 -0.28 0.2 c0.16 0.04 0.2 -0.08 0.28 -0.2 c0.12 0.12 0.28 0.04 0.28 -0.12 c-0.16 -0.04 -0.2 0.08 -0.28 0.12 z M6.2 34.519999999999996 c-0.16 0 -0.2 0.08 -0.24 0.16 c0.12 0 0.16 -0.08 0.24 -0.16 c0.08 0 0 -0.04 0 0 z M5.64 34.92 c0.12 0 0.32 -0.2 0.24 -0.28 c-0.04 0.12 -0.28 0.08 -0.24 0.28 z M3 34.96 c0.16 0.04 0.24 -0.24 0.08 -0.24 c0.04 0.16 -0.12 0.08 -0.08 0.24 z M5.44 35 l0.08 0 l0 -0.08 l-0.08 0 l0 0.08 z M2.56 35 c0.04 0.2 0.04 -0.16 0 0 l0 0 z M5.12 35.2 c0.12 0 0.2 -0.08 0.28 -0.12 l-0.24 0 c0 0.04 -0.04 0.08 -0.04 0.12 z M2.08 37.48 c0.4 -0.68 0.68 -1.48 0.96 -2.36 l-0.2 0 c-0.04 0.76 -0.72 1.56 -0.76 2.36 z M13.52 35.44 c0.04 -0.08 0.04 -0.32 -0.12 -0.32 c0.04 0.12 0.04 0.24 0.12 0.32 z M-0.6 35.24 c0.04 0 0.04 0.04 0.08 0.08 c0 -0.08 0 -0.2 -0.08 -0.16 l0 0.08 z M4.64 35.64 c0 -0.04 0 -0.04 0.04 -0.04 c0 -0.08 -0.04 -0.12 -0.12 -0.12 c0.04 0.08 0 0.16 0.08 0.16 z M5.16 35.6 c0.04 0.04 -0.04 -0.04 0 0 l0 0 z M4.44 35.72 c0.08 0.16 0.12 -0.16 0 0 l0 0 z M13.68 36.64 c-0.04 -0.24 0 -0.72 -0.16 -0.96 c0.04 0.32 0 0.76 0.16 0.96 z M4.32 35.88 c0.04 -0.04 0.12 -0.12 0 -0.16 c0 0.08 -0.08 0.12 0 0.16 z M-0.88 35.84 c-0.16 0 0 0.28 0.04 0.08 c-0.04 0 -0.04 -0.04 -0.04 -0.08 c0.04 -0.04 -0.04 -0.08 0 0 z M4.72 35.88 c0.08 0 0.12 -0.04 0.16 -0.08 c-0.08 0 -0.12 0 -0.16 0.08 z M4.2 35.88 c-0.12 0.16 0.16 -0.12 0 0 l0 0 z M3.72 36.28 c-0.2 -0.08 0 0.12 0 0 c0.08 0 0.12 -0.04 0.12 -0.12 c-0.08 0 -0.12 0.04 -0.12 0.12 z M3.32 36.6 c-0.2 -0.04 -0.24 0.28 -0.08 0.32 c0.04 -0.08 0.08 -0.16 0.08 -0.32 c0.08 0 0.12 0.04 0.2 0.04 c0.04 -0.16 -0.2 -0.2 -0.2 -0.04 z M3.92 36.6 c-0.04 0 -0.12 0 -0.12 0.04 c0.04 0 0.12 0 0.12 -0.04 z M1.8 37.24 c0.08 -0.04 0.24 -0.44 0.2 -0.6 c-0.12 0.16 -0.16 0.36 -0.2 0.6 z M-1.32 36.92 c0 -0.04 0.08 -0.08 0 -0.12 c0 0.04 -0.08 0.08 0 0.12 z M2.84 37.28 c0.28 0 -0.04 -0.32 0.24 -0.28 c0 -0.08 0.04 -0.2 -0.04 -0.2 c-0.2 0.16 -0.2 0.24 -0.2 0.48 z M13.68 37.6 c0.2 -0.04 0.16 -0.4 0 -0.48 l0 0.48 z M-1.52 37.4 c0.12 0.2 0.08 -0.16 0 0 l0 0 z M2.88 38.12 c0.08 0.2 0.08 -0.16 0 0 l0 0 z M1.6 38.52 c0.04 -0.04 0.24 -0.16 0.08 -0.24 c0.04 0.12 -0.24 0.16 -0.08 0.24 z M13.76 39.16 c-0.04 -0.24 0.2 -0.6 0 -0.68 c0 0.2 -0.16 0.48 0 0.68 z M1.56 38.72 c-0.16 0 -0.28 0.32 -0.2 0.44 c0.04 -0.16 0.16 -0.28 0.2 -0.44 l0.04 0 c0 -0.04 0 -0.04 0.04 -0.04 l0 -0.12 c-0.08 0 -0.08 0.08 -0.08 0.16 z M13.6 40.24 c0 -0.24 0.24 -0.48 0.04 -0.8 c0.04 0.32 -0.24 0.48 -0.04 0.8 z M1.6 39.68 c0.04 0.04 0 -0.04 0 0 l0 0 z M1.76 39.76 c0 -0.04 0 -0.04 0.04 -0.04 c0 -0.04 -0.04 -0.12 -0.12 -0.08 c0.04 0.04 0 0.12 0.08 0.12 z M13.08 40.28 c0.04 0.2 0.04 -0.16 0 0 l0 0 z M13.52 40.68 c0.04 -0.04 0.12 -0.28 -0.08 -0.24 c0.04 0.08 -0.04 0.24 0.08 0.24 z M12.92 40.88 c0.04 -0.12 0.2 -0.32 0.04 -0.4 c0.04 0.16 -0.16 0.28 -0.04 0.4 z M13.32 41.48 c0.04 -0.24 0.16 -0.48 0.08 -0.76 c0.04 0.16 -0.2 0.56 -0.08 0.76 z M12.8 41.6 c0 -0.04 0.12 -0.2 0 -0.2 c-0.04 0.04 -0.12 0.2 0 0.2 z M12.68 41.88 c0.04 -0.08 0.16 -0.2 0 -0.24 c0.04 0.08 -0.12 0.2 0 0.24 z M13.12 41.8 c0.04 0 0 -0.04 0 0 l0 0 z M11.72 43.88 c-0.16 0.24 -0.52 0.52 -0.44 0.84 c0.16 -0.32 0.36 -0.48 0.44 -0.84 c0.4 -0.44 0.72 -1.24 0.84 -1.8 c-0.28 0.6 -0.6 1.16 -0.84 1.8 z M12.56 43.24 c0.12 -0.2 0.4 -0.56 0.32 -0.84 c-0.12 0.28 -0.28 0.52 -0.32 0.84 z M-0.04 42.8 c-0.08 0.04 0 0.04 0 0 c0.08 -0.04 0 -0.08 0 0 z M-0.8 43.16 c0 -0.04 0 -0.08 0.04 -0.08 c0 0.04 0 0.04 0.04 0.04 c0 -0.08 0.08 -0.08 0.08 -0.2 c-0.12 0 -0.28 0.2 -0.16 0.24 z M12.4 43.64 c0 -0.08 0.16 -0.24 0.04 -0.28 c0 0.08 -0.16 0.24 -0.04 0.28 z M12 44.36 c-0.08 0.16 0.16 -0.12 0 0 l0 0 z M11.76 44.68 c0.16 0 0.12 -0.12 0.16 -0.16 c-0.12 0 -0.16 0.04 -0.16 0.16 z M9.84 46.36 c0.4 -0.08 0.32 -0.4 0.68 -0.44 c0.04 -0.12 -0.08 -0.12 -0.04 -0.24 c0.32 -0.24 0.68 -0.68 0.68 -1.08 c-0.44 0.6 -0.84 1.2 -1.32 1.76 z M10.52 46.16 c0.08 0 0.04 0.12 0.12 0.12 c0.4 -0.4 0.64 -1 1.12 -1.32 c0 -0.08 0 -0.2 -0.08 -0.24 c-0.36 0.52 -0.72 1 -1.16 1.44 z M10.08 45.28 c-0.08 0.16 0.16 -0.12 0 0 l0 0 z M9.72 45.72 c0.04 0.2 0.04 -0.2 0 0 l0 0 z M9.28 46.24 c0.04 0.04 0 0 0 0 l0 0 z M9.96 46.92 c0.16 0 0.6 -0.4 0.52 -0.68 c-0.16 0.24 -0.44 0.36 -0.52 0.68 z M9.08 46.4 c0.08 0.2 0.08 -0.2 0 0 l0 0 z M9.52 46.72 c0.12 -0.08 0.32 -0.08 0.32 -0.28 c-0.2 0 -0.24 0.16 -0.32 0.28 z M8.64 46.88 c0.16 -0.04 0.24 -0.12 0.24 -0.24 c-0.12 0 -0.12 0.16 -0.24 0.24 z M9.44 46.84 c-0.12 0.16 0.16 -0.12 0 0 l0 0 z M9.28 47.56 c0.2 -0.16 0.76 -0.4 0.52 -0.64 c-0.08 0.28 -0.44 0.32 -0.52 0.64 z M7.8 47.6 c0.2 -0.08 0.64 -0.28 0.72 -0.64 c-0.28 0.2 -0.56 0.36 -0.72 0.64 z M8.84 47.480000000000004 c0.04 -0.12 0.4 -0.2 0.24 -0.36 c-0.04 0.12 -0.36 0.24 -0.24 0.36 z M3.28 49.76 c1.68 -0.16 2.88 -1.08 4.16 -1.8 c0.04 -0.12 0.32 -0.28 0.2 -0.36 c-1.12 0.88 -2.68 1.68 -4.36 2.16 z M9.04 47.72 l0.16 0 c-0.04 -0.04 0 -0.12 -0.08 -0.12 c0 0.04 -0.08 0.08 -0.08 0.12 z M8.28 47.92 c0.12 0 0.16 -0.08 0.2 -0.12 l-0.16 0 c0 0.04 -0.04 0.08 -0.04 0.12 z M8.72 48.08 c0.12 -0.08 0.24 -0.12 0.28 -0.28 c-0.2 0 -0.28 0.08 -0.28 0.28 z M7.68 48.36 c0.16 0.04 0.2 -0.08 0.24 -0.16 c-0.04 0 -0.08 0 -0.12 -0.04 c0.04 0.12 -0.12 0.12 -0.12 0.2 z M7.32 48.519999999999996 c0 0.2 -0.36 0.04 -0.28 0.32 c0.2 -0.12 0.44 -0.16 0.56 -0.4 c-0.2 0 -0.12 0.16 -0.28 0.08 z M6.64 49.12 c0.04 -0.16 0.28 -0.12 0.32 -0.28 c-0.16 0 -0.52 0.2 -0.32 0.28 z M5.96 49.4 c0.16 -0.04 0.2 -0.08 0.4 -0.04 c0.04 -0.08 0.24 -0.24 0.08 -0.32 c0 0.28 -0.44 0.12 -0.48 0.36 z M5.68 49.56 c-0.12 0 -0.2 0 -0.2 0.08 c0.12 0.04 0.2 0 0.2 -0.08 l0.2 0 l0 -0.16 c-0.12 0 -0.16 0.08 -0.2 0.16 z M4.56 49.96 c0.36 0.12 0.64 -0.2 0.92 -0.24 c-0.24 -0.08 -0.64 0.12 -0.92 0.24 z M3.24 49.72 c-0.04 0 -0.12 0 -0.12 0.04 c0.04 0 0.12 0 0.12 -0.04 z M5.84 49.88 c0.08 0.04 0.16 0 0.16 -0.08 c-0.08 0 -0.16 0.04 -0.16 0.08 z M2.36 49.88 c0.04 0.04 0 0 0 0 l0 0 z M4.16 50.12 l0.08 0 l0 -0.08 l-0.08 0 l0 0.08 z M4.28 50.08 c0.04 0.04 0 0 0 0 l0 0 z M3.76 50.2 c0.12 0.16 0.08 -0.16 0 0 l0 0 z M4.24 25.52 c0.12 -0.2 0.08 0.16 0 0 l0 0 z M3.44 26.84 l0 0 c0 0.04 -0.04 0 0 0 z M3.84 27.759999999999998 l0 0 c0.04 0.04 0 0 0 0 z M3.72 27.8 l0.08 0 l0 0.12 l-0.08 0 l0 -0.12 z M2.76 28.16 c-0.04 0 -0.08 -0.04 0 -0.04 l0 0.04 z M3.52 28.119999999999997 c0.2 -0.04 0.12 0.16 0 0.16 l0 -0.16 z M2.6 28.28 l0 0 c0.04 0.04 0 0 0 0 z M3.32 28.52 c0.04 -0.04 0.12 -0.04 0.12 0 c-0.04 0.08 -0.04 0 -0.12 0 z M2.84 29.6 l0 0 c0.04 0.04 0 -0.04 0 0 z M1.32 30.560000000000002 c0.04 -0.2 0.04 0.2 0 0 l0 0 z M0.92 31.28 c0.12 -0.2 0.08 0.16 0 0 l0 0 z M0.68 31.72 c0.12 -0.04 0.08 0.2 -0.04 0.12 l0 -0.08 c0.04 0 0.04 -0.04 0.04 -0.04 z M0.24 32.6 l0 0 c0.04 0.04 0 0 0 0 z M-0.16 33.32 c0.04 0 0 0.08 0 0 l0 0 z M-0.64 34.36 c0.2 0 -0.08 0.28 0 0 l0 0 z M-0.96 35 c0.08 -0.16 0.08 0.2 0 0 l0 0 z M-1.12 35.68 c0 -0.2 0.08 -0.36 -0.12 -0.2 c0 0.16 -0.04 0.28 0.12 0.2 z M-1.6 36.4 c0.08 0 0 0.2 0 0.24 c-0.12 0 -0.04 -0.2 0 -0.24 z M4.28 36.68 l0 0 c0.04 0.04 0 0 0 0 z M1.8 49.32 l0 0 c0.04 0.04 -0.04 -0.04 0 0 z M23.500000000000004 36.24 c0.04 0 0.04 -0.04 0.04 -0.04 c-0.04 -0.08 -0.04 0 -0.04 0.04 c-0.16 0.12 -0.48 0.2 -0.44 0.36 c-0.16 0.2 -0.4 0.2 -0.64 0.36 c-1.64 1.04 -3.72 4.48 -6.04 3.56 c-0.08 -0.28 -0.24 -0.48 -0.32 -0.72 c0 -0.2 -0.16 0.08 -0.16 -0.08 c-0.12 -0.2 -0.2 -0.4 -0.32 -0.6 c0.56 -2.8 2.08 -4.64 3.56 -6.6 c0.56 -0.44 1.24 -0.96 2.16 -0.96 c0.88 0.2 1.92 0.48 2.08 1.56 c0.08 0.6 -0.16 1 -0.4 1.4 c0.32 0 0.68 -0.32 1.2 -0.24 c0.72 0.28 0.84 1.76 0.32 2.28 c0.36 0.6 -0.36 1.48 -0.08 2.16 c4 -0.64 6.24 -3.48 8.68 -5.84 c-0.28 2.12 -2.44 3.2 -3.84 4.64 c-0.92 0.52 -1.6 1 -2.6 1.44 c0.08 0.12 0.24 -0.12 0.4 -0.08 c-0.04 0.12 -0.2 0.08 -0.2 0.2 c1.64 -0.56 2.68 -1.92 4.08 -2.56 c-0.04 -0.12 -0.16 0.04 -0.24 0 c0.08 -0.12 0.2 -0.36 0.28 -0.08 c0.12 -0.28 0.56 -0.76 1.12 -0.88 c-1.72 2.08 -3.92 3.48 -6.56 4.72 c-0.36 0.04 -0.64 -0.08 -1 -0.08 c-0.6 -0.2 -0.8 -0.52 -1.08 -1.04 c-0.04 -0.8 -0.08 -2.04 0.04 -2.92 z M17.140000000000004 39 c2.04 -1 3.32 -2.68 4.96 -4.08 c-0.32 -0.28 -0.12 -1.24 -0.2 -1.6 c-2.64 0.84 -3.6 3.36 -4.76 5.68 z M32.620000000000005 33.8 c0.04 0.16 0.12 -0.2 0 0 l0 0 z M32.38 34.08 c0.08 0.08 0.16 -0.04 0.2 -0.16 c-0.12 0.04 -0.24 0.04 -0.2 0.16 z M27.540000000000003 37.88 c-0.04 -0.08 -0.12 -0.08 -0.12 0 c-0.12 -0.04 -0.16 0.04 -0.2 0.12 c0.12 0 0.16 -0.08 0.2 -0.12 l0.12 0 c-0.08 0.16 -0.28 0.2 -0.44 0.28 c0 -0.08 0.2 -0.16 0 -0.16 c-0.08 0.16 -0.16 0.4 -0.4 0.2 c-0.04 0.12 -0.16 0.32 0 0.32 c2.16 -1.12 4.24 -2.6 5.64 -4.4 c-1.56 1.32 -3 2.72 -4.8 3.76 z M22.820000000000004 35.16 c-0.16 0.24 0.28 0.08 0 0 l0 0 z M22.500000000000004 35.480000000000004 c0.04 0.08 0.32 -0.08 0.16 -0.16 c0 0.12 -0.2 0 -0.16 0.16 z M22.26 35.72 c-0.12 -0.04 -0.2 0.16 -0.12 0.16 c0 -0.08 0.12 -0.04 0.12 -0.16 c0.04 0 0.04 0.04 0.08 0.04 c0.04 -0.04 0.04 -0.08 0.04 -0.16 c-0.08 0 -0.12 0.04 -0.12 0.12 z M22.500000000000004 35.84 c0 0.04 -0.04 0 0 0 l0 0 z M21.340000000000003 36.48 c-0.12 0.16 0.16 -0.12 0 0 l0 0 z M21.180000000000003 36.6 c0.04 0.04 0 0 0 0 l0 0 z M22.820000000000004 36.6 c0.24 0.08 0.04 -0.12 0 0 l0 0 z M22.620000000000005 36.76 c0.2 0.04 0 -0.16 0 0 l0 0 z M26.900000000000002 38.2 c0.04 0.04 -0.04 0 0 0 l0 0 z M16.860000000000003 38.28 c0.2 0.08 0 -0.12 0 0 l0 0 z M16.820000000000004 38.52 c-0.08 0.12 -0.28 0.36 -0.2 0.44 c0.08 -0.12 0.2 -0.2 0.2 -0.44 c0.08 0 0 -0.04 0 0 z M26.340000000000003 39.16 c0.08 -0.04 0.24 -0.04 0.28 -0.16 c-0.16 0 -0.32 0 -0.28 0.16 z M16.580000000000002 39.12 c-0.12 0.16 0.16 -0.12 0 0 l0 0 z M26.42 39.32 c0.16 -0.08 0.36 -0.08 0.4 -0.24 c-0.16 0.04 -0.32 0.08 -0.4 0.24 z M16.580000000000002 39.32 c0.08 -0.16 -0.2 -0.16 -0.2 -0.08 c0.08 0 0.12 0.08 0.2 0.08 z M32.42 34.92 c0.12 0.08 -0.04 0.24 -0.16 0.2 c0.04 -0.08 0.16 -0.08 0.16 -0.2 z M32.34 35.28 c0.04 0.16 -0.28 0.24 -0.24 0.04 c0.08 0.04 0.08 -0.08 0.24 -0.04 z M31.860000000000003 35.36 c0.04 -0.16 0.04 0.2 0 0 l0 0 z M27.380000000000003 38.72 c0 0.12 -0.16 0.08 -0.16 0.16 c-0.12 -0.04 0.08 -0.16 0.16 -0.16 z M42.120000000000005 31.6 c-0.16 -0.12 -0.36 -0.24 -0.56 -0.32 c-1.28 0.52 -2.16 1.64 -3.28 2.08 c-0.08 0.36 -0.24 0.64 -0.56 0.72 c-1.2 1.68 -2.4 3.32 -3.36 5.2 c-0.12 0.92 -0.56 1.48 -1.32 1.76 c-2 -0.92 -0.84 -4.08 -0.64 -5.88 c0.4 -0.92 0.44 -2.32 0.88 -3.04 c1.76 0.4 1.04 2.28 0.84 3.56 c0.92 -1.4 2.08 -2.56 3.24 -3.76 c1.08 -0.92 3.8 -2.2 4.76 -0.32 z M39.160000000000004 31.32 c0.28 0.04 0.28 -0.2 0.48 -0.12 c-0.12 -0.28 0.32 -0.04 0.36 -0.32 c-0.28 0.08 -0.52 0.12 -0.64 0.08 c-2.2 1.28 -3.96 3.36 -5.16 5.6 c1.4 -2 2.92 -3.88 4.96 -5.24 z M40.120000000000005 30.92 c0.04 0.04 -0.04 0 0 0 l0 0 z M40.32000000000001 31.28 c0 0.08 -0.04 0.12 -0.08 0.16 c0.16 -0.04 0.36 -0.04 0.4 -0.24 c-0.12 0.04 -0.2 0.08 -0.32 0.08 z M39.92 31.64 c0.16 0 0.2 -0.12 0.28 -0.2 c-0.16 -0.08 -0.4 0 -0.28 0.2 z M38.800000000000004 32.24 c0.36 -0.04 0.6 -0.48 0.92 -0.48 c-0.04 -0.12 0.16 -0.28 -0.04 -0.24 c-0.24 0.28 -0.64 0.44 -0.88 0.72 z M39.36000000000001 32.08 c-0.12 0.16 0.16 -0.12 0 0 l0 0 z M38.480000000000004 32.56 c0.12 -0.08 0.28 -0.12 0.32 -0.28 c-0.12 0.08 -0.44 0.12 -0.32 0.28 z M37.96000000000001 33.24 c0.08 -0.16 0.32 -0.2 0.32 -0.44 l-0.12 0 c0.04 0.24 -0.36 0.28 -0.2 0.44 z M37.56 33.56 c0 0 0 -0.04 0.04 -0.04 c0 -0.04 0 -0.12 -0.08 -0.08 c0 0.04 0 0.12 0.04 0.12 z M39.160000000000004 31.32 c-0.04 0 -0.08 -0.04 0 -0.04 l0 0.04 z M37.760000000000005 32.16 l0 0 c0.04 0.04 -0.04 0 0 0 z M32.160000000000004 33.24 c0 -0.16 0.2 0.04 0 0 l0 0 z M48.1 36.24 c0.04 0 0.04 -0.04 0.04 -0.04 c-0.04 -0.08 -0.04 0 -0.04 0.04 c-0.16 0.12 -0.48 0.2 -0.44 0.36 c-0.16 0.2 -0.4 0.2 -0.64 0.36 c-1.64 1.04 -3.72 4.48 -6.04 3.56 c-0.08 -0.28 -0.24 -0.48 -0.32 -0.72 c0 -0.2 -0.16 0.08 -0.16 -0.08 c-0.12 -0.2 -0.2 -0.4 -0.32 -0.6 c0.56 -2.8 2.08 -4.64 3.56 -6.6 c0.56 -0.44 1.24 -0.96 2.16 -0.96 c0.88 0.2 1.92 0.48 2.08 1.56 c0.08 0.6 -0.16 1 -0.4 1.4 c0.32 0 0.68 -0.32 1.2 -0.24 c0.72 0.28 0.84 1.76 0.32 2.28 c0.36 0.6 -0.36 1.48 -0.08 2.16 c4 -0.64 6.24 -3.48 8.68 -5.84 c-0.28 2.12 -2.44 3.2 -3.84 4.64 c-0.92 0.52 -1.6 1 -2.6 1.44 c0.08 0.12 0.24 -0.12 0.4 -0.08 c-0.04 0.12 -0.2 0.08 -0.2 0.2 c1.64 -0.56 2.68 -1.92 4.08 -2.56 c-0.04 -0.12 -0.16 0.04 -0.24 0 c0.08 -0.12 0.2 -0.36 0.28 -0.08 c0.12 -0.28 0.56 -0.76 1.12 -0.88 c-1.72 2.08 -3.92 3.48 -6.56 4.72 c-0.36 0.04 -0.64 -0.08 -1 -0.08 c-0.6 -0.2 -0.8 -0.52 -1.08 -1.04 c-0.04 -0.8 -0.08 -2.04 0.04 -2.92 z M41.74 39 c2.04 -1 3.32 -2.68 4.96 -4.08 c-0.32 -0.28 -0.12 -1.24 -0.2 -1.6 c-2.64 0.84 -3.6 3.36 -4.76 5.68 z M57.220000000000006 33.8 c0.04 0.16 0.12 -0.2 0 0 l0 0 z M56.980000000000004 34.08 c0.08 0.08 0.16 -0.04 0.2 -0.16 c-0.12 0.04 -0.24 0.04 -0.2 0.16 z M52.14 37.88 c-0.04 -0.08 -0.12 -0.08 -0.12 0 c-0.12 -0.04 -0.16 0.04 -0.2 0.12 c0.12 0 0.16 -0.08 0.2 -0.12 l0.12 0 c-0.08 0.16 -0.28 0.2 -0.44 0.28 c0 -0.08 0.2 -0.16 0 -0.16 c-0.08 0.16 -0.16 0.4 -0.4 0.2 c-0.04 0.12 -0.16 0.32 0 0.32 c2.16 -1.12 4.24 -2.6 5.64 -4.4 c-1.56 1.32 -3 2.72 -4.8 3.76 z M47.42 35.16 c-0.16 0.24 0.28 0.08 0 0 l0 0 z M47.1 35.480000000000004 c0.04 0.08 0.32 -0.08 0.16 -0.16 c0 0.12 -0.2 0 -0.16 0.16 z M46.86000000000001 35.72 c-0.12 -0.04 -0.2 0.16 -0.12 0.16 c0 -0.08 0.12 -0.04 0.12 -0.16 c0.04 0 0.04 0.04 0.08 0.04 c0.04 -0.04 0.04 -0.08 0.04 -0.16 c-0.08 0 -0.12 0.04 -0.12 0.12 z M47.1 35.84 c0 0.04 -0.04 0 0 0 l0 0 z M45.940000000000005 36.48 c-0.12 0.16 0.16 -0.12 0 0 l0 0 z M45.78 36.6 c0.04 0.04 0 0 0 0 l0 0 z M47.42 36.6 c0.24 0.08 0.04 -0.12 0 0 l0 0 z M47.220000000000006 36.76 c0.2 0.04 0 -0.16 0 0 l0 0 z M51.5 38.2 c0.04 0.04 -0.04 0 0 0 l0 0 z M41.46 38.28 c0.2 0.08 0 -0.12 0 0 l0 0 z M41.42 38.52 c-0.08 0.12 -0.28 0.36 -0.2 0.44 c0.08 -0.12 0.2 -0.2 0.2 -0.44 c0.08 0 0 -0.04 0 0 z M50.940000000000005 39.16 c0.08 -0.04 0.24 -0.04 0.28 -0.16 c-0.16 0 -0.32 0 -0.28 0.16 z M41.18000000000001 39.12 c-0.12 0.16 0.16 -0.12 0 0 l0 0 z M51.02 39.32 c0.16 -0.08 0.36 -0.08 0.4 -0.24 c-0.16 0.04 -0.32 0.08 -0.4 0.24 z M41.18000000000001 39.32 c0.08 -0.16 -0.2 -0.16 -0.2 -0.08 c0.08 0 0.12 0.08 0.2 0.08 z M57.02 34.92 c0.12 0.08 -0.04 0.24 -0.16 0.2 c0.04 -0.08 0.16 -0.08 0.16 -0.2 z M56.940000000000005 35.28 c0.04 0.16 -0.28 0.24 -0.24 0.04 c0.08 0.04 0.08 -0.08 0.24 -0.04 z M56.46000000000001 35.36 c0.04 -0.16 0.04 0.2 0 0 l0 0 z M51.980000000000004 38.72 c0 0.12 -0.16 0.08 -0.16 0.16 c-0.12 -0.04 0.08 -0.16 0.16 -0.16 z M85.36000000000001 14.600000000000001 c0 -0.04 0.04 -0.04 0.08 -0.04 c0 0.04 -0.08 0.04 -0.08 0.04 z M83.64000000000001 14.600000000000001 c0.08 0.04 -0.08 0.16 -0.16 0.12 c-0.08 -0.16 0.16 0 0.16 -0.12 z M82.96000000000001 14.64 c0.12 0 0.2 0.12 0.12 0.16 c-0.04 -0.04 -0.12 -0.04 -0.12 -0.16 z M87 14.68 c0.08 -0.16 0 0.32 0 0 l0 0 z M87.36000000000001 14.68 c0.08 0 0.08 0.08 0.16 0.04 c0 0.08 -0.24 0.08 -0.16 -0.04 z M88.32000000000001 15.079999999999998 c0 0.04 0.04 0.04 0.08 0.04 c0 -0.12 -0.04 -0.04 -0.08 -0.04 c-0.04 -0.12 -0.16 -0.16 -0.16 -0.28 c0.16 0.08 0.44 0.04 0.44 0.28 c0.08 0 0.08 -0.08 0.08 -0.16 c0.32 0.12 0.48 0.4 0.52 0.84 c-0.2 0.44 0.28 0.68 0.16 1.08 c-0.2 0.08 -0.04 -0.16 -0.16 -0.16 c-0.16 0.08 0.04 0.24 0 0.4 c-0.48 0.32 -1.04 0.6 -1.6 0.84 c-0.04 0 -0.04 0 -0.04 0.04 c-1.36 0.24 -2.52 0.52 -3.92 0.72 c-0.16 -0.04 0.04 -0.2 0.04 -0.28 c-0.16 0 -0.64 0.08 -0.68 -0.2 c-0.12 0.16 -0.28 -0.04 -0.28 0.24 c0 -0.08 -0.16 -0.08 -0.16 -0.24 c0.16 -0.08 0.28 0.04 0.4 -0.08 c-0.64 -0.04 -1.4 0.28 -2.12 0.36 c0 -0.08 0 -0.12 -0.04 -0.16 c0 0.12 -0.72 0.32 -0.96 0.08 c1.28 -0.4 2.52 -0.6 3.64 -0.84 c0.12 -0.08 0.2 -0.2 0.2 -0.36 c0.08 0.04 0.08 -0.04 0.2 -0.04 c0 0.12 -0.2 0.12 -0.2 0.28 c0.08 0.04 0.24 0 0.48 0 l0 -0.16 c0 -0.08 -0.12 -0.04 -0.2 -0.04 c0 -0.16 0.2 -0.12 0.28 -0.16 c0.08 0.08 -0.04 0.08 0 0.2 c0 0.12 0.2 0.04 0.28 0.04 s0 -0.12 0.08 -0.16 c0.04 -0.08 -0.16 0.04 -0.2 0.04 c-0.12 -0.28 0.44 -0.24 0.68 -0.32 c-0.08 0.2 -0.36 0.16 -0.4 0.32 c0.2 0.04 0.44 -0.2 0.68 -0.08 c0.12 -0.04 0.04 -0.36 0.24 -0.36 c0 0.12 -0.12 0.08 -0.08 0.24 c0.16 0.04 0.12 -0.12 0.12 -0.24 c0.56 0.08 1.08 -0.28 1.6 -0.4 c0 -0.12 -0.2 -0.04 -0.12 -0.16 c-0.08 0 -0.08 0.08 -0.08 0.12 c-0.4 -0.08 -0.76 -0.08 -1.12 -0.08 c-0.12 0 -0.04 -0.24 -0.28 -0.2 c-0.12 0.04 0.04 0.12 0 0.2 c-0.12 0.04 -0.24 0 -0.28 -0.12 c-0.12 -0.04 -0.16 0.04 -0.16 0.12 c-0.08 0 -0.08 -0.08 -0.12 -0.08 c0.04 0.08 -0.12 0.08 -0.32 0.08 c-0.04 0 -0.08 -0.08 -0.04 -0.2 c-0.08 0.04 -0.08 0.08 -0.08 0.12 c-0.04 0 -0.08 -0.04 -0.08 -0.12 c-0.12 0.04 -0.08 0.16 -0.16 0.2 c-0.16 -0.24 -0.32 -0.08 -0.56 -0.08 c0 0.08 0.12 0.04 0.08 0.08 c-0.16 0 -0.12 -0.2 -0.32 -0.12 c-0.08 0.12 0.08 0.04 0.12 0.12 c0 0.12 -0.28 0.04 -0.44 0.08 c-0.04 -0.12 0.12 -0.08 0.16 -0.12 c-0.24 -0.08 -0.72 -0.16 -0.84 0.12 c-0.16 -0.08 -0.24 0.04 -0.36 0.08 c-0.12 -0.04 -0.16 -0.16 -0.28 -0.2 c-0.92 0 -2.08 0.4 -2.88 0.16 c-0.04 0.08 -0.12 0.16 -0.2 0.24 c-0.56 -0.08 -1.08 0.2 -1.6 0.08 c0.04 -0.12 0 -0.16 -0.04 -0.24 l-0.24 0 s-0.04 0.2 -0.04 0.28 c0.12 0 0.12 -0.08 0.12 -0.16 c0.12 0 0.04 0.16 0.2 0.12 c-0.4 0.16 -0.84 0.24 -1.28 0.2 c0 -0.16 0 -0.16 0.16 -0.12 c0 -0.08 -0.04 -0.08 -0.04 -0.16 c-0.12 0 -0.08 0.12 -0.24 0.08 c0 -0.16 -0.08 -0.28 0.04 -0.44 c0.08 0 -0.04 0.24 0.08 0.2 c0.2 0.08 0 -0.28 0.16 -0.2 c-0.04 0.12 -0.08 0.2 0.16 0.16 c-0.12 -0.08 0.36 -0.36 0.32 -0.08 c0.12 -0.08 0.16 -0.28 0.36 -0.2 c0.08 0.08 -0.04 0.08 0.04 0.12 c0.28 0.04 0.28 0 0.48 -0.04 c0.04 -0.12 -0.16 0.04 -0.08 -0.16 c0.04 0 0.08 0.08 0.08 0 c0.08 0.04 0.04 0.12 0.08 0.2 c0.12 -0.04 0.2 -0.08 0.28 0 c0.08 -0.08 0.24 -0.16 0.16 -0.44 c0.28 0.08 0.24 0.16 0.36 0.12 c0 0.12 -0.04 0.2 0 0.28 c0.12 -0.08 0.32 -0.08 0.2 -0.28 c0.16 0.04 0.12 -0.08 0.24 -0.04 c0 0.16 -0.04 0.16 0.04 0.28 c0.12 0.04 0.08 -0.12 0.16 -0.12 c0.04 -0.12 -0.12 -0.08 -0.08 -0.24 c0.08 0.04 0.12 -0.04 0.08 -0.08 c0.08 0.12 0.12 0.2 0.16 0.32 c0.24 0.08 0.16 -0.28 0.24 -0.32 c0.04 0.04 0.24 0.12 0.08 0.2 c0 0.08 0.12 0.08 0.24 0.08 c0 -0.08 0 -0.16 -0.08 -0.2 c-0.04 -0.08 0.2 0.04 0.16 -0.04 c0.12 0.04 0 0.16 0 0.24 l0.08 0 c0.12 -0.08 0.04 -0.12 0.04 -0.24 c0.04 0 0.12 0 0.12 -0.04 c0.12 0 0.08 0.12 0.08 0.24 c0.16 -0.16 0.32 -0.36 0.64 -0.24 c0 0.16 0.16 0 0 0 c0 -0.08 0 -0.12 0.12 -0.12 c-0.04 0.16 0.04 0.24 0.12 0.28 c0.16 -0.08 -0.08 -0.16 0.04 -0.2 c0.08 0.08 0.56 0.16 0.56 -0.12 c0.08 0.04 0.08 0.12 0.12 0.2 c0.2 0 0.52 -0.2 0.56 0 c0.08 0 0.04 -0.12 0.04 -0.2 s-0.12 -0.04 -0.16 -0.04 c0.04 -0.16 0 -0.24 -0.04 -0.28 c0.08 -0.04 0.12 0.08 0.08 0.12 c0.12 0.08 0.08 -0.08 0.08 -0.12 c0.08 0.04 0.08 0.2 0.28 0.12 c0.04 0.2 -0.16 0.12 -0.2 0.24 c0 0.16 0.36 0.12 0.36 -0.04 c0.24 0.2 0.36 0 0.68 0 c0 -0.08 0.08 -0.24 0.24 -0.28 c0 0.12 -0.04 0.16 -0.08 0.24 c0.04 0.24 0.24 0.04 0.36 0.16 c0 -0.04 0 -0.12 -0.04 -0.12 c0.24 -0.12 0.52 0 0.8 0 c0.2 0 0.32 -0.12 0.48 -0.12 c0.28 0 0.4 0.08 0.6 0.04 c0.6 -0.12 1.2 0.32 1.64 0.04 c0.08 0.16 0.2 0.12 0.28 0.16 c0.2 -0.04 0.04 -0.36 0.24 -0.2 c-0.04 -0.16 -0.28 -0.08 -0.12 -0.24 c0 -0.08 -0.08 -0.08 -0.16 -0.08 c-0.04 0.04 0 0.32 -0.16 0.32 c0 -0.08 0 -0.16 -0.04 -0.2 c0.2 -0.04 0.04 -0.24 0.08 -0.36 c0.08 -0.04 0.32 0.2 0.32 -0.04 c0 -0.08 -0.08 0.08 -0.2 0 c0 -0.08 -0.04 -0.08 -0.04 -0.16 c0.24 0.04 0.28 0.04 0.44 0.08 c-0.04 0.08 -0.12 0.08 -0.16 0.2 c0.04 0.16 0.24 0.08 0.4 0.08 z M88.52000000000001 15.16 c0.08 0.12 0.12 -0.16 0 0 l0 0 z M88.12 15.32 c0.04 -0.12 -0.12 -0.04 -0.16 -0.08 c0 0.08 0.08 0.08 0.16 0.08 z M88.52000000000001 15.760000000000002 c0.12 0.04 0.12 -0.2 0 -0.16 l0 0.16 z M84.84 15.760000000000002 l-0.24 0 c-0.04 0.16 0.24 0.16 0.24 0 z M82.92 15.879999999999999 c0.04 0.16 0.04 -0.16 0 0 l0 0 z M83.16000000000001 15.879999999999999 c-0.08 0.16 0.28 0.04 0.28 -0.08 c-0.12 0 -0.24 0 -0.28 0.08 z M84.16000000000001 15.879999999999999 c0.04 0 0 -0.04 0 0 l0 0 z M81.44 16 l0.08 0 c0.08 -0.12 -0.16 -0.12 -0.12 -0.04 c0 0 0.04 0 0.04 0.04 z M79.2 16.32 c0 -0.08 -0.04 -0.08 -0.12 -0.12 c0 0.04 0 0.12 0.12 0.12 z M76.76 16.36 c0.08 0 0.12 0 0.2 0.04 l0 -0.16 l-0.16 0 c0 0.04 -0.04 0.08 -0.04 0.12 z M78.52000000000001 16.32 c0.04 0.16 0.12 -0.16 0 0 l0 0 z M79.44 16.36 l0.08 0 l0 -0.12 l-0.08 0 l0 0.12 z M78.96000000000001 16.4 c0.04 0.04 -0.04 0 0 0 l0 0 z M77.64000000000001 16.44 c0.04 0.04 -0.04 0 0 0 l0 0 z M87.16000000000001 16.84 c0.32 0.08 0.6 -0.16 0.92 -0.2 c0 -0.12 0 -0.16 -0.08 -0.2 c-0.28 0.16 -0.6 0.24 -0.84 0.4 z M76.76 16.68 c0.04 0.04 -0.04 0 0 0 l0 0 z M76.52000000000001 16.72 c-0.04 0 -0.08 0 -0.08 0.04 c0.04 -0.04 0.08 0 0.08 -0.04 z M87.04 16.88 c-0.08 -0.08 -0.08 0.16 0 0.16 l0 -0.16 c0.08 -0.04 0 -0.04 0 0 z M85.44 17.56 c0.04 0.04 -0.04 0 0 0 l0 0 z M83.04 18.12 c0.16 -0.08 0.16 0 0.2 0.04 c0.04 -0.24 0.32 0 0.4 -0.24 c-0.28 0.12 -0.44 -0.04 -0.6 0.2 z M84.32000000000001 18.2 l0.08 0 l0 -0.04 l-0.08 0 l0 0.04 z M83.52000000000001 18.24 c0.12 0.2 0.08 -0.12 0 0 l0 0 z M81.04 14.8 c0.04 0.16 -0.16 0 -0.2 0.08 c-0.12 -0.08 0.12 -0.08 0.2 -0.08 z M81.28 14.8 c0.04 -0.16 0.04 0.2 0 0 l0 0 z M84.08000000000001 14.8 c0.08 0.12 0.16 -0.04 0.28 0.04 c0.08 0.24 -0.2 0.08 -0.24 0.2 c-0.12 -0.08 -0.08 -0.12 -0.04 -0.24 z M84.60000000000001 14.8 c0.04 0 0.08 0.08 0.08 0.2 c-0.12 -0.04 -0.12 -0.04 -0.28 0 c-0.04 -0.2 0.24 -0.04 0.2 -0.2 z M87.4 15.239999999999998 l-0.04 0 c-0.04 0.04 0 0.04 0.04 0.04 c-0.04 0.08 0.04 0.12 0.04 0.2 c-0.12 -0.08 -0.6 0.12 -0.64 -0.16 c0.08 0 0.16 0 0.16 -0.04 c0.08 0 0.08 0.08 0.2 0.04 c0.12 -0.08 -0.12 -0.08 -0.04 -0.28 c-0.56 -0.04 -1.12 -0.08 -1.68 -0.16 c-0.12 0.2 0.08 0.12 0.04 0.36 c-0.12 -0.04 -0.12 -0.2 -0.2 -0.32 c-0.24 0 -0.36 0.2 -0.56 -0.04 c0.8 -0.08 1.64 -0.08 2.76 0.04 c0.04 0.2 -0.16 0.12 -0.08 0.32 z M83.2 14.879999999999999 c-0.28 0.16 -0.68 0.24 -0.88 0.04 c0.32 0 0.6 0 0.88 -0.04 z M80.56 14.920000000000002 c0 -0.04 0.04 -0.04 0.08 -0.04 c0 0.04 -0.04 0.04 -0.08 0.04 z M83.36000000000001 14.920000000000002 c0 -0.12 0.12 0.12 0.12 -0.04 c0.16 0.08 -0.12 0.16 -0.12 0.04 z M83.80000000000001 14.920000000000002 c0.16 -0.12 0.24 0.16 0 0 l0 0 z M79.72 15 l0 0 c0.04 0 0 -0.04 0 0 z M79.84 15 c0 -0.08 0 -0.04 0.04 -0.08 c0 0.08 -0.04 0.04 -0.04 0.08 z M82.28 15 c-0.16 0.28 -0.68 -0.12 -0.76 0.28 c-0.04 0 -0.04 -0.08 -0.04 -0.16 c-0.24 0.04 -0.24 0.04 -0.52 0.04 c0.2 -0.24 0.96 -0.12 1.32 -0.16 z M83.36000000000001 14.920000000000002 c0 0.08 -0.08 0.04 0 0 l0 0 z M84.48 15.04 c0.12 0 0 0.28 0.24 0.24 c0 0.24 -0.2 0.12 -0.32 0.08 c0.08 -0.12 0.08 -0.08 0.08 -0.32 z M78.60000000000001 15.120000000000001 l0 0 c0.04 0.04 0 0 0 0 z M80.60000000000001 15.079999999999998 c0.08 0.04 0 0.08 0 0.16 c-0.08 -0.04 0 -0.12 0 -0.16 z M80.72 15.120000000000001 c0 -0.12 0.12 0 0.08 0.12 l-0.08 0 c0 -0.04 0.04 -0.12 0 -0.12 z M84.96000000000001 15.120000000000001 l0 0 c0.04 0.04 -0.04 0 0 0 z M80.36000000000001 15.16 c0.08 -0.16 0.12 0.16 0 0 l0 0 z M84.24000000000001 15.120000000000001 c-0.04 0.08 -0.08 0.12 -0.12 0.12 c0 -0.08 0.04 -0.12 0.12 -0.12 z M85.64000000000001 15.16 c0 0 0.08 -0.08 0.16 -0.04 c0.08 0.08 -0.2 0.2 -0.16 0.04 z M86.52000000000001 15.280000000000001 c0 0.08 -0.04 0.12 -0.04 0.16 c-0.16 -0.08 -0.36 -0.08 -0.52 -0.08 c0.08 -0.08 0 -0.08 0 -0.24 c0.12 0 0.16 0.12 0.28 0.16 c0.08 0 0 -0.12 0.08 -0.16 c0.2 -0.08 0 0.24 0.2 0.16 z M86.52000000000001 15.280000000000001 c0 -0.04 -0.08 -0.04 -0.04 -0.12 c0.12 -0.12 0.28 0.08 0.24 0.28 c-0.16 0.04 -0.08 -0.16 -0.2 -0.16 z M86.96000000000001 15.280000000000001 l-0.16 0 c0 -0.08 0.04 -0.12 0.04 -0.16 l0.12 0 l0 0.16 z M79.76 15.16 l0.08 0.08 l0 0.04 l-0.12 0 c0 -0.04 0.04 -0.04 0.04 -0.12 z M80.12 15.239999999999998 c0 -0.08 0.24 -0.12 0.2 0.04 c-0.08 0 -0.12 -0.08 -0.2 -0.04 z M83.4 15.239999999999998 l0 0 c0.04 0 -0.04 -0.04 0 0 z M83.72 15.16 c0.12 0.04 0.2 0.12 0.24 0.12 c0.04 0.16 -0.08 0.08 -0.08 0 c-0.04 0 -0.04 0.08 -0.04 0.16 c-0.08 0.12 -0.04 -0.2 -0.12 -0.28 z M87.4 15.239999999999998 c0.04 0 0.08 0.04 0.08 0.04 l-0.08 0 l0 -0.04 z M79.52000000000001 15.280000000000001 c0.08 -0.16 0.08 0.2 0 0 l0 0 z M84.24000000000001 15.280000000000001 l0.08 0 c0 0.04 -0.04 0.04 -0.04 0.08 c-0.04 0 -0.04 -0.04 -0.12 -0.04 c0.04 -0.04 0.08 -0.04 0.08 -0.04 z M85.52000000000001 15.280000000000001 c0.08 -0.16 0.08 0.2 0 0 l0 0 z M85.88000000000001 15.280000000000001 c0.04 -0.16 0.04 0.2 0 0 l0 0 z M76.76 15.32 l0 0 c0.04 0.04 -0.04 0 0 0 z M79.08000000000001 15.32 l0 0 c0.04 0.04 0 0 0 0 z M85.16000000000001 15.280000000000001 c0.12 0 0.16 0 0.24 0.04 c0 0.08 -0.28 0.12 -0.24 -0.04 z M78.48 15.36 c0 0.16 -0.16 0.12 -0.08 0.32 c-0.16 -0.16 -0.36 -0.12 -0.52 -0.16 c0.04 -0.08 0.04 -0.16 0.16 -0.16 c0.04 0.24 0.28 -0.08 0.44 0 z M78.56 15.32 l0.08 0 l0 0.12 l-0.08 0 l0 -0.12 z M78.96000000000001 15.36 l0 0 c0.04 0.04 -0.04 0 0 0 z M80.28 15.32 c0.12 -0.04 0.12 0.28 0 0.24 l0 -0.24 z M81.2 15.36 l0 0 c0.04 0.04 -0.04 0 0 0 z M76.48 15.440000000000001 l0 0 l0 0 z M79.2 15.36 c0.12 0.04 0.08 0.16 0.04 0.2 c-0.08 0 -0.04 -0.12 -0.04 -0.2 z M80.48 15.36 c0.12 -0.04 0.08 0.12 0.08 0.2 c-0.08 0 -0.12 -0.08 -0.08 -0.2 z M81.64000000000001 15.559999999999999 c-0.2 -0.04 -0.28 0.12 -0.36 0 c-0.04 -0.12 0.08 -0.08 0.08 -0.2 c0.04 0.12 0.16 0.16 0.28 0.2 z M82.04 15.440000000000001 c-0.08 0.04 -0.08 0.12 -0.2 0.12 c-0.04 -0.12 0.08 -0.12 0.2 -0.12 z M87.68 15.48 c0.08 -0.2 0.08 0.2 0 0 l0 0 z M76.2 15.52 l0 0 c0.04 0.04 0 0 0 0 z M77.60000000000001 15.48 c0.08 -0.04 0.04 0.2 -0.08 0.12 l0 -0.08 c0.04 0 0.04 0 0.08 -0.04 z M77.24000000000001 15.559999999999999 l0 0.16 c-0.16 -0.16 -0.16 0.04 -0.36 -0.04 c-0.08 -0.04 0.2 -0.12 0.28 -0.16 c0 0.04 0.04 0.04 0.08 0.04 z M77.24000000000001 15.559999999999999 l0 0 c0.08 -0.04 0 -0.04 0 0 z M77.4 15.559999999999999 c0.04 -0.2 0.04 0.2 0 0 l0 0 z M79.88000000000001 15.52 c0.2 0.04 -0.04 0.24 0 0 l0 0 z M76.64000000000001 15.68 c0.08 -0.2 0.08 0.12 0 0 l0 0 z M78.72 15.600000000000001 c0.04 0.04 0 0.12 0.08 0.12 c-0.04 0.08 -0.16 0 -0.08 -0.12 z M76.28 15.719999999999999 c-0.08 0 -0.04 -0.08 0 0 l0 0 z M76.48 15.719999999999999 c0 -0.04 0.04 -0.04 0.08 -0.04 c0 0.04 -0.08 0.04 -0.08 0.04 z M76.04 15.719999999999999 c0.16 0.08 -0.12 0.12 0 0 l0 0 z M76.28 15.719999999999999 c0.04 0 0.08 0 0.08 0.04 l-0.08 0 l0 -0.04 z M78.92 15.760000000000002 c0.12 -0.2 0.04 0.12 0 0 l0 0 z M78.60000000000001 15.760000000000002 c0.08 -0.16 0.08 0.2 0 0 l0 0 z M75.60000000000001 15.8 l0 0 c0 0.04 -0.04 0 0 0 z M75.44 15.879999999999999 c-0.08 0 -0.04 -0.08 0 0 l0 0 z M75.08000000000001 15.879999999999999 c0.08 0.12 -0.04 0.08 -0.12 0.08 c0 -0.08 0.08 -0.12 0.12 -0.08 z M75.44 15.879999999999999 c0.16 -0.08 0 0.12 0 0 l0 0 z M74.76 15.96 l0 0 c0.04 -0.04 0 -0.04 0 0 z M74.76 15.96 c-0.04 0.16 -0.2 -0.04 0 0 l0 0 z M75.52000000000001 15.96 l0.12 0 l0 0.16 l-0.12 0 l0 -0.16 z M72.64 16.04 c0.04 -0.16 0.04 0.2 0 0 l0 0 z M77.72 16.04 c0.16 -0.08 -0.12 0.16 0 0 l0 0 z M73.92 16.04 l0.08 0 l0 0.16 l-0.12 0 l0 -0.08 c0.04 0 0.04 -0.04 0.04 -0.08 z M76.44 16.12 l0 0 c0.04 0 0 -0.04 0 0 z M77.28 16.12 c0 -0.08 0.08 -0.04 0.12 -0.08 c-0.04 0.08 -0.08 0.04 -0.12 0.08 z M73.52000000000001 16.12 c0.04 0 0.04 0.08 0.08 0.08 c0 0.08 -0.12 0 -0.08 -0.08 z M73.72 16.12 c0.12 0 0.12 0.08 0.04 0.12 l-0.08 0 l0 -0.08 c0.04 0 0.04 -0.04 0.04 -0.04 z M77.16000000000001 16.2 l0 0 c0 0.04 -0.04 0 0 0 z M84.64000000000001 16.16 c0.16 0.08 -0.16 0.12 0 0 l0 0 z M73.08000000000001 16.24 l0 0 c-0.04 0.24 0.04 -0.2 0 0 z M71.44000000000001 16.24 c0.2 0 -0.08 0.24 0 0 l0 0 z M72.64 16.24 c0.2 0.2 -0.2 0.16 0 0 l0 0 z M73.24000000000001 16.24 l0.08 0 l-0.08 0 z M74.56 16.24 c0.12 -0.12 0.08 0.16 0 0 l0 0 z M84.12 16.24 l0 0 c0.04 0.04 -0.04 0 0 0 z M74.12 16.32 c-0.16 0 -0.12 0.24 -0.36 0.24 c0.04 -0.08 0.08 -0.16 0.08 -0.24 c0.08 0.12 0.16 -0.12 0.28 0 z M75.2 16.32 c0.04 -0.04 0.08 0 0.08 -0.08 c-0.04 0.04 -0.08 0 -0.08 0.08 z M74.44 16.4 l0 0 c0.04 0.04 0 0 0 0 z M64.96000000000001 37.96 l0 -0.04 c-0.04 0 0 0.04 0 0.04 c-0.04 0.68 -0.36 1.12 -0.44 1.56 c-0.12 0.72 -0.28 1.2 -0.44 1.72 c-0.28 0.92 -0.64 1.92 -0.84 2.8 c-0.12 0.4 -0.4 0.8 -0.56 1.2 c-0.16 0.6 -0.48 1.64 -0.56 2 c-0.08 0.6 -0.6 1.68 -0.68 2.24 c-0.08 0.04 -0.16 0 -0.16 0.08 c-0.16 0 -0.12 -0.12 -0.16 -0.2 c-0.2 0.24 -0.4 -0.16 -0.48 0 c-0.28 -0.08 -0.24 -0.44 -0.32 -0.64 c-0.16 0 -0.08 0.2 -0.16 0.24 c-0.2 -0.2 -0.08 -0.72 -0.28 -0.92 c0.4 -0.32 0.4 -1.08 0.76 -1.48 c0.32 -1.48 0.92 -2.48 1.12 -4.08 c0.96 -3.28 1.44 -6.92 1.52 -10.84 c0 -0.84 -0.04 -1.36 0.04 -1.96 c-0.24 -0.48 -0.12 -1.32 -0.32 -1.84 l0 -0.16 c-0.08 -0.04 -0.08 0.16 0 0.16 c-0.08 0.4 0.16 0.68 0.04 1.04 c-0.28 -1.16 -0.48 -2.44 -0.96 -3.52 c-0.64 -1.52 -1.72 -2.8 -3.6 -3.16 c-0.64 0.12 -1.08 -0.24 -1.64 -0.12 c-0.04 -0.08 -0.16 -0.08 -0.2 -0.12 c-0.8 0.2 -1.28 0.56 -2.08 0.84 c-0.12 0 -0.04 0.16 -0.12 0.2 s-0.04 -0.08 -0.16 -0.08 c-0.48 0.52 -1.6 0.88 -2.28 0.36 c-0.04 -0.28 0 -0.68 -0.2 -0.8 c-0.04 -0.36 0.04 -0.6 0.12 -0.92 c0.92 -0.56 2.2 -0.88 3.08 -1.56 c0.36 0.12 1.24 -0.4 1.36 0.16 c0.4 -0.08 0.68 -0.24 1 -0.36 c0 0.08 0 0.12 -0.04 0.16 c0.08 -0.04 0.52 -0.2 0.6 -0.28 c0.08 0 0.16 0.04 0.12 0.12 c0.12 -0.04 0.16 -0.16 0.2 -0.24 c0.24 0.08 0.12 0 0.36 -0.08 c0.04 0.12 -0.08 0.12 -0.04 0.2 c0.16 -0.08 0.44 -0.04 0.6 -0.2 c1 -0.16 1.64 -0.64 2.48 -0.6 c0.04 -0.04 0.08 -0.12 0.08 -0.24 c0.4 0.2 0.8 -0.24 1.12 -0.08 c-0.28 0.24 -0.48 0.12 -0.68 0.36 c0 0.2 0.32 -0.08 0.28 0.2 c-0.2 -0.04 -0.4 -0.04 -0.4 0.2 c-0.04 0 -0.04 -0.08 -0.08 -0.12 c-0.44 0.16 -0.84 0.16 -1.04 0.48 c-0.08 -0.04 -0.2 -0.04 -0.24 -0.12 c-0.04 0.04 -0.12 0.04 -0.08 0.2 c0.2 0.16 0.48 -0.04 0.64 -0.12 c0.08 0 0.04 0.08 0 0.12 l0.12 0 c0.16 -0.04 -0.04 -0.08 0 -0.16 c0.4 0.16 0.72 -0.08 1.12 -0.16 c0 -0.12 -0.2 0 -0.12 -0.2 c0.2 0.04 0.32 0.24 0.32 0.36 c0.2 0 0.24 -0.12 0.36 -0.12 c0 -0.16 -0.2 0.12 -0.24 -0.04 c0 -0.16 0.16 0 0.2 -0.2 c-0.08 -0.08 -0.2 0.04 -0.36 0 c0.04 -0.12 -0.12 -0.12 -0.08 -0.24 c0.04 -0.08 0.08 -0.24 0.24 -0.24 c0 0.04 -0.04 0.04 -0.04 0.08 c0.2 0.04 0 -0.16 0.12 -0.2 c0.16 0 0.16 0.08 0.04 0.16 c0.12 0.04 0.16 -0.04 0.12 -0.16 c0.08 0.12 0.16 0.16 0.32 0.12 c-0.12 0.24 -0.44 0.08 -0.68 0.36 c0.08 0.2 0.2 -0.04 0.36 0 c0 0.12 0.16 0.12 0.08 0.32 c0.12 0 0.12 -0.08 0.2 -0.08 c-0.12 -0.04 -0.04 -0.08 -0.08 -0.12 c0.16 -0.04 0.4 -0.12 0.64 -0.12 c0.04 0 0.12 -0.2 0.04 -0.24 c0.04 -0.12 0.2 -0.08 0.32 -0.12 c0.04 0.08 -0.04 0.08 -0.04 0.16 c0.36 -0.08 0.76 -0.04 1.12 -0.28 c0.12 0 0.08 0.2 0.16 0.2 c0.04 -0.12 0.16 -0.16 0.16 -0.28 c0.04 0.04 0.12 0.04 0.24 0.04 l0 0.16 c0.04 -0.16 0.04 -0.16 0.2 -0.08 c0.04 -0.12 -0.16 -0.08 -0.12 -0.28 c0.12 -0.04 0.16 0.12 0.16 -0.04 c0.12 0 0.04 0.24 0.12 0.28 c0.12 -0.12 0.08 -0.24 0.28 -0.2 c0.04 -0.12 -0.08 -0.12 -0.08 -0.24 c0.16 0.04 0.12 0.24 0.16 0.4 c0 -0.24 0.44 -0.44 0.52 -0.28 c0.2 -0.32 0.64 -0.04 0.8 -0.36 c0.12 0 0.08 0.16 0.24 0.16 c0.08 -0.04 0.04 -0.12 0.04 -0.2 c0.24 0 0.72 -0.04 1 -0.2 c0.08 0 0.08 0.2 0.2 0.2 c0 -0.04 -0.12 -0.2 0.04 -0.32 c0.04 -0.04 0.32 0.08 0.2 -0.08 c0.12 -0.2 0 0.24 0.24 0.16 c0 0.04 -0.04 0.04 -0.12 0.04 c-0.04 0.12 0.08 0.08 0.08 0.2 c0.08 -0.2 0.2 -0.24 0.12 -0.48 c0.2 -0.08 0.32 -0.44 0.28 -0.64 c0 -0.08 0 -0.08 0.08 -0.04 c0.04 -0.04 0.12 -0.24 0.04 -0.28 c0.44 0.08 1.28 -0.2 1.8 0.2 c0.08 0.12 0.04 0.36 0.12 0.48 c0.28 -0.08 0.68 0.04 0.76 -0.16 c0.24 0.12 0.56 -0.24 0.6 0.16 c0.24 0 0.44 -0.2 0.64 -0.04 c0.08 -0.12 -0.12 -0.52 -0.08 -0.56 c0.2 -0.04 0.2 0.36 0.36 0.12 c0 0 0.04 0.04 0.08 0.04 c0.12 0 0 -0.28 0.12 -0.32 c0.08 0.08 0.24 0.08 0.2 0.28 c0.08 0 0.16 0 0.24 -0.08 c-0.04 -0.16 -0.16 0.04 -0.2 0 c-0.04 -0.2 0.24 -0.08 0.24 -0.24 c0.16 0.04 0.04 0.08 0.04 0.24 c0.2 0.08 0 -0.28 0.2 -0.2 c-0.08 0.24 0.2 0.32 0.48 0.32 c0.04 0.08 -0.08 0.08 -0.04 0.2 c-0.92 0.16 -2 0.48 -2.8 0.4 c-0.12 0 0 0.24 -0.12 0.16 c0 -0.12 0 -0.2 -0.04 -0.24 c-0.2 0.04 -0.04 0.16 0 0.28 c-0.32 0 -0.56 0.08 -1 0.16 c0.04 0.36 -0.16 0.52 -0.32 0.68 c-0.36 0.96 -0.68 1.88 -1.12 2.68 c-0.16 0.72 -0.56 1.32 -0.6 1.92 c-0.44 0.56 -0.44 1.56 -0.92 2.04 c-0.04 0.08 0.04 0.08 0.04 0.2 c-0.28 1.08 -0.72 2.04 -1.08 2.88 l0 0.2 c-0.2 0.52 -0.16 1.28 -0.56 1.84 c0 0.04 0.04 0.04 0.08 0.04 c-0.16 0.16 -0.2 0.32 -0.16 0.56 c-0.24 0.6 -0.48 1.36 -0.64 2.16 c-0.04 0 -0.08 0 -0.12 -0.04 c-0.16 0.68 -0.4 1.56 -0.64 2.16 c0.08 0.28 -0.04 0.56 -0.24 0.68 c0.12 0.28 -0.16 0.28 -0.04 0.64 c-0.28 0.08 -0.08 0.64 -0.44 0.72 c0.12 0.32 -0.04 0.72 -0.24 0.92 z M74.80000000000001 16.68 c0 -0.04 0.08 -0.08 0.08 -0.12 c-0.08 -0.04 -0.2 0.12 -0.08 0.12 z M75.28 16.88 c0.2 -0.04 0.28 0.04 0.36 -0.16 c-0.12 0 -0.32 0 -0.36 0.16 z M73.56 17.12 c-0.16 -0.12 -0.12 0.16 0 0 l0 0 z M72.16000000000001 17.28 c0.12 0.2 0.08 -0.12 0 0 l0 0 z M69.68 17.76 c-0.04 0.08 -0.08 0.04 -0.12 0 c-0.08 0.2 0.28 0.08 0.12 0 z M69.04 17.96 c0.04 0.2 0.04 -0.2 0 0 l0 0 z M68.88000000000001 18 c0.08 0.16 0.12 -0.16 0 0 l0 0 z M68.32000000000001 18.04 c0 0.12 0.08 0.12 0.2 0.12 l0 -0.16 c-0.12 0 -0.12 0.08 -0.2 0.04 z M63.24000000000001 19.68 c-0.2 0 -0.36 0.04 -0.44 0.12 c0.2 0 0.32 -0.04 0.44 -0.12 c0.12 0.04 0.2 -0.12 0.28 0 c-1.84 0.76 -4 1.08 -5.72 1.88 c2.84 0.52 5.08 2.04 5.4 4.56 c0.2 -0.04 0.24 0.4 0.32 0.56 c-0.04 0.04 -0.16 0.04 -0.16 0.12 c0.16 0 0.12 0.24 0.16 0.32 c0 -0.08 0.04 -0.12 0.12 -0.12 c0.24 0.72 0.6 1.64 0.44 2.32 c-0.04 -0.04 -0.08 0.04 0 0 l0 0.16 c0.28 0.28 0.08 0.92 0.24 1.4 c-0.28 0.32 0.04 0.88 -0.32 1.24 c0.04 0.12 0.12 0.2 0.12 0.4 c-0.12 0 -0.08 -0.16 -0.12 -0.16 c-0.08 0.44 0 0.68 -0.04 1.16 c0.08 0.12 0.2 -0.2 0.24 -0.08 c0 0.24 0.08 0.32 0 0.52 c-0.24 -0.12 -0.08 0.04 -0.2 0.16 c0 -0.12 0 -0.36 -0.08 -0.2 c0.08 0.08 -0.24 0.52 0 0.56 c-0.04 -0.12 0.24 -0.16 0.24 -0.04 c-0.16 0.12 -0.48 0.64 -0.2 1 c-0.24 -0.04 -0.16 0.24 0 0.24 l0 -0.24 l0.04 0 c0 -0.36 0 -0.56 0.12 -0.72 c0.04 0.32 -0.04 0.56 0 0.72 c1.88 -5.88 3.52 -11.8 5.72 -17.32 c-0.2 -0.08 -0.28 0.04 -0.56 0.08 c-0.28 0.08 -0.6 0 -0.88 0.04 c-0.12 0.04 -0.24 0.24 -0.44 0.24 c-1.04 0.16 -2 0.52 -2.96 0.72 c-0.28 0.04 -0.4 0.04 -0.6 0.12 c-0.36 0.16 -0.88 0.16 -1.16 0.36 z M67.4 18.32 c0.04 0 0.08 0.04 0.16 0.04 l0 -0.16 c-0.08 0 -0.16 0.04 -0.16 0.12 z M67.32000000000001 18.36 c0.04 0.04 0 -0.04 0 0 l0 0 z M66.88000000000001 18.48 c0.08 0 0.2 0.04 0.2 -0.04 c-0.04 0 -0.04 -0.08 -0.08 -0.08 c0 0.08 -0.12 0.04 -0.12 0.12 z M65.24000000000001 18.88 c0.04 0.04 -0.04 0 0 0 l0 0 z M61.760000000000005 19.12 c0.12 0.04 0.32 -0.2 0.16 -0.24 c0.04 0.2 -0.12 0.16 -0.16 0.24 z M64.60000000000001 19.04 c0.04 0.04 -0.04 -0.04 0 0 l0 0 z M64.2 19.12 l0.16 0 c0 0 0 -0.08 -0.04 -0.08 c-0.04 0.08 -0.08 0.08 -0.12 0.08 z M64.48 19.08 l0 0 l0 0 z M61.64000000000001 19.12 c0 0.04 -0.04 0 0 0 l0 0 z M61.60000000000001 19.12 c-0.04 0.04 -0.08 0 -0.08 0.08 c0.04 -0.04 0.08 0 0.08 -0.08 z M61.32000000000001 19.24 c0.08 0.2 0.08 -0.16 0 0 l0 0 z M63.800000000000004 19.2 l-0.16 0 c-0.12 0.2 0.2 0.12 0.16 0 z M64 19.24 c0.04 0.2 0.04 -0.16 0 0 l0 0 z M63.440000000000005 19.32 c-0.12 0.16 0.12 -0.12 0 0 l0 0 z M60.760000000000005 19.44 c0 0 -0.04 -0.04 0 0 l0 0 z M62.480000000000004 19.6 c0.04 0 0 0 0 0 l0 0 z M60.24000000000001 19.8 c0.16 -0.04 0.12 0 0.24 0.08 c0 -0.12 0 -0.16 -0.08 -0.2 c0 0.12 -0.24 -0.04 -0.16 0.12 z M62.2 19.68 c-0.04 0 -0.12 0 -0.12 0.04 c0.04 0 0.12 0 0.12 -0.04 z M60.00000000000001 19.92 l-0.12 -0.12 c-0.08 0.12 0.12 0.24 0.12 0.12 c0.12 -0.04 0.12 0.04 0.16 0.04 c0 -0.08 0.04 -0.08 0.04 -0.16 c-0.04 -0.08 -0.16 0 -0.2 0.12 z M62.60000000000001 19.8 c0.08 0.16 0.12 -0.16 0 0 l0 0 z M61.64000000000001 19.88 c-0.08 0.16 0.16 -0.12 0 0 l0 0 z M61.60000000000001 20.16 c0.32 -0.08 0.68 -0.12 0.96 -0.28 c-0.44 0 -0.76 0.08 -0.96 0.28 z M59.440000000000005 20 c-0.16 0 -0.32 0.12 -0.24 0.2 c0 -0.12 0.28 0.04 0.28 -0.12 c-0.04 0 -0.04 -0.04 -0.04 -0.08 c0.08 0.04 0.08 0.12 0.24 0.08 c-0.04 -0.04 0 -0.04 0 -0.12 c-0.08 -0.04 -0.2 -0.08 -0.24 0.04 z M59.800000000000004 19.92 c-0.04 0 -0.08 0 -0.08 0.04 c0.04 0 0.08 0 0.08 -0.04 z M60.68000000000001 20.16 c0.04 0.04 0 0 0 0 l0 0 z M56.92000000000001 20.2 c-0.32 0.04 0.24 0 0 0 l0 0 z M61.36000000000001 20.2 c0.08 0.16 0.12 -0.12 0 0 l0 0 z M58.720000000000006 20.32 l0 0 l0 0 z M61.120000000000005 20.32 c0 -0.08 -0.04 -0.08 -0.04 0 c0.04 0 0.04 0.04 0.04 0 z M60.760000000000005 20.4 c0.08 0 0.24 0.04 0.16 -0.08 l-0.16 0 l0 0.08 z M62.60000000000001 26.4 c-0.04 0.28 0.04 -0.16 0 0 l0 0 z M62.60000000000001 26.64 c0.04 0 0.04 0.04 0.08 0.04 c0 -0.04 0 -0.16 -0.08 -0.12 l0 0.08 z M62.68000000000001 26.8 l0.12 0 l0 -0.04 l-0.12 0 l0 0.04 z M67.28 27.119999999999997 c0.04 0.04 -0.04 0 0 0 l0 0 z M67.28 27.28 c-0.04 0 -0.08 0 -0.08 0.04 c0 0 0.08 0 0.08 -0.04 z M67.04 27.439999999999998 c0.04 0.04 -0.04 -0.04 0 0 l0 0 z M63.800000000000004 37.4 c0.12 0.16 0.04 0.36 0 0.52 c-0.12 0 -0.24 0 -0.12 0.12 c-0.08 0.04 0.12 0 0.2 0.12 c0.08 -0.32 0.28 -0.6 0.24 -0.96 c0.36 -0.44 0.36 -1.32 0.64 -1.76 c0.28 -1.04 0.68 -2.44 1.16 -3.6 c0 -0.44 0.2 -1.08 0.44 -1.48 c0 -0.12 0 -0.2 -0.04 -0.2 c0.28 -0.8 0.64 -1.8 0.68 -2.68 c-1.08 3 -2.12 6.88 -3.2 9.92 z M62.88000000000001 27.560000000000002 c0.04 0.04 0 0 0 0 l0 0 z M63.720000000000006 27.72 c0.04 0.16 0.04 -0.2 0 0 l0 0 z M67.88000000000001 27.84 c0.04 0.16 0.04 -0.16 0 0 l0 0 z M63.760000000000005 27.92 c0 -0.04 -0.08 -0.04 -0.08 0 c0.04 0 0.08 0.08 0.08 0 z M63.760000000000005 28.08 c-0.04 0.24 0.04 -0.2 0 0 l0 0 z M67.68 28.52 c-0.08 0.24 0.16 0 0 0 l0 0 z M63.56 29.2 c-0.04 -0.16 0.04 -0.48 -0.08 -0.56 c-0.12 0.2 0 0.48 0.08 0.56 z M67.4 29.439999999999998 c0.12 0.08 0.12 -0.24 0.04 -0.24 c-0.04 0.04 -0.08 0.12 -0.04 0.24 z M63.56 29.64 c0.04 0 0 -0.04 0 0 l0 0 z M67.24000000000001 30.16 c-0.04 -0.12 0.12 -0.28 0.04 -0.4 c0 0.16 -0.2 0.32 -0.04 0.4 z M63.56 29.92 c0.04 0.04 0 0 0 0 l0 0 z M63.68000000000001 30.52 c0.04 -0.16 0 -0.36 -0.12 -0.4 c0.08 0.16 -0.12 0.36 0.12 0.4 z M67.08000000000001 30.6 c0 -0.04 0 -0.12 0.12 -0.08 c-0.04 -0.08 0.04 -0.28 -0.08 -0.24 c0.04 0.08 -0.16 0.2 -0.04 0.32 z M64.12 30.84 c-0.04 -0.16 0.04 -0.2 0.08 -0.32 c-0.04 -0.04 -0.08 -0.08 -0.2 -0.08 c0.12 0.2 -0.12 0.32 0.12 0.4 z M63.68000000000001 31.759999999999998 c-0.08 -0.32 0 -0.76 -0.12 -1.12 c0 0.24 -0.12 0.92 0.12 1.12 z M67.04 30.64 c-0.08 0.04 0 0.08 0 0 c0.08 0 0 0 0 0 z M67.2 30.64 c0 0.04 -0.04 0 0 0 l0 0 z M66.96000000000001 30.880000000000003 c0.04 0.2 0.04 -0.16 0 0 l0 0 z M66.88000000000001 31.439999999999998 c0 -0.12 0.12 -0.32 0 -0.4 c-0.04 0.08 -0.08 0.32 0 0.4 z M64 31.119999999999997 c0.04 0 0 0 0 0 l0 0 z M66.60000000000001 32.2 c0.08 -0.16 0.28 -0.48 0.16 -0.68 c-0.08 0.2 -0.28 0.52 -0.16 0.68 z M66.44000000000001 31.759999999999998 c0.04 0.04 0 0 0 0 l0 0 z M63.64000000000001 33.24 c-0.08 -0.48 0.16 -1.12 -0.12 -1.36 c0.04 0.6 -0.12 1.12 0.12 1.36 z M66.60000000000001 32.28 c-0.04 0 -0.08 0 -0.08 0.04 c0 0 0.08 0 0.08 -0.04 z M65.92 34.44 c0.32 -0.28 0.12 -1.24 0.52 -1.4 c-0.12 -0.28 0.16 -0.52 0 -0.68 c-0.16 0.68 -0.48 1.36 -0.52 2.08 z M65.92 33.04 c-0.04 0 -0.12 0 -0.12 0.04 c0.04 0 0.12 0 0.12 -0.04 z M63.52 35.44 c-0.08 -0.56 0.2 -1.64 0 -2.16 c0.04 0.72 -0.36 1.52 0 2.16 z M65.72 35.08 c0.08 -0.04 0.2 -0.44 0.04 -0.44 c0.08 0.24 -0.2 0.32 -0.04 0.44 z M65.64 35.4 c0 -0.04 0.12 -0.2 0 -0.2 c-0.04 0.04 -0.12 0.16 0 0.2 z M65.04 35.44 c0.12 0.04 0.2 -0.12 0.08 -0.16 c0 0.08 -0.04 0.12 -0.08 0.16 z M63.120000000000005 36.84 c0.08 0.96 -0.36 1.56 -0.2 2.44 c0.16 -0.48 0.2 -1.12 0.2 -1.68 c0.2 -0.68 0.4 -1.52 0.24 -2.08 c-0.12 0.44 -0.04 0.96 -0.24 1.32 z M65.36 36.08 c0.16 -0.04 0.2 -0.48 0.16 -0.6 c-0.04 0.24 -0.16 0.36 -0.16 0.6 z M63.92000000000001 35.76 c0.04 0.16 0.04 -0.16 0 0 l0 0 z M63.800000000000004 35.96 c-0.08 0.12 -0.16 0.4 -0.08 0.44 c0.16 0 0.28 -0.28 0.2 -0.48 c0 0.12 -0.16 -0.12 -0.16 0 c0.04 0 0.08 0 0.04 0.04 z M65.24000000000001 36.56 c0.12 0 0.16 -0.32 0.08 -0.36 c-0.04 0.12 -0.12 0.2 -0.08 0.36 z M64.84 36.4 c-0.04 0.04 -0.08 0 -0.08 0.08 c0 -0.04 0.08 0 0.08 -0.08 z M63.720000000000006 36.6 c-0.04 0.4 0.12 -0.12 0 0 l0 0 z M65 37.2 c0.16 0 0.28 -0.48 0.12 -0.48 c-0.08 0.16 -0.04 0.28 -0.12 0.48 z M64.80000000000001 37.88 c0.12 0 0.16 -0.24 0.08 -0.28 c-0.04 0.08 -0.04 0.2 -0.08 0.28 z M64.64 38.32 c0.16 0.08 0.12 -0.2 0.04 -0.2 c0.04 0.12 -0.08 0.12 -0.04 0.2 z M63.760000000000005 38.32 c-0.08 0.04 0 0.04 0 0 c0.2 0 0 -0.04 0.12 -0.12 c-0.12 0 -0.12 0.08 -0.12 0.12 z M64.24000000000001 38.32 l-0.08 0 c0.04 0 0.08 0.08 0.08 0 z M64.60000000000001 38.72 c-0.04 -0.12 0.12 -0.2 0 -0.24 c0.04 0.08 -0.12 0.2 0 0.24 z M64.48 38.96 c-0.04 0.28 0 -0.16 0 0 l0 0 z M62.56 40.8 c0.04 -0.44 0.48 -1.08 0.24 -1.4 c-0.08 0.52 -0.36 0.92 -0.24 1.4 z M64.32000000000001 39.64 c0 -0.04 0.12 -0.24 -0.08 -0.2 c0.04 0.08 0 0.16 0.08 0.2 z M64 40.4 c0 -0.12 0.2 -0.2 0.08 -0.32 c-0.04 0.08 -0.16 0.24 -0.08 0.32 z M63.96000000000001 40.52 c0.04 0.04 -0.04 -0.04 0 0 l0 0 z M63.96000000000001 40.8 c0 -0.08 0 -0.12 -0.08 -0.16 c-0.04 0.08 0 0.16 0.08 0.16 z M63.92000000000001 41.2 c0.04 -0.08 0 -0.32 -0.16 -0.36 c0.04 0.12 0 0.36 0.16 0.36 z M63.440000000000005 41.96 c0.08 0.2 -0.16 0.36 -0.08 0.44 c0.16 -0.24 0.52 -0.8 0.36 -1.12 c-0.12 0.2 -0.12 0.76 -0.28 0.68 z M63.2 43 c0.12 -0.04 0.16 -0.36 0.08 -0.44 c0 0.16 -0.08 0.24 -0.08 0.44 z M63.00000000000001 43.88 c0.04 0.2 0.04 -0.2 0 0 l0 0 z M61.56 44.76 c0.04 0.2 0.04 -0.2 0 0 l0 0 z M72.12 16.44 c0 -0.04 0.04 -0.04 0.04 -0.04 c0 0.04 0 0.04 -0.04 0.04 z M73.56 16.44 l0 0 c0.04 0.04 0 0 0 0 z M71.92 16.48 c0 -0.04 0.04 -0.04 0.08 -0.04 c0 0.04 -0.04 0.04 -0.08 0.04 z M70.12 16.56 c0.12 -0.12 -0.12 0.16 0 0 l0 0 z M73.64 16.6 c0 -0.04 0.04 -0.04 0.08 -0.04 c0 0.04 -0.04 0.04 -0.08 0.04 z M74.56 16.68 c-0.08 0 -0.12 -0.04 -0.12 -0.12 c0.08 -0.04 0.12 0.04 0.12 0.12 z M69.52000000000001 16.6 c0.04 0 0.04 0.04 0.12 0.04 l0 0.08 c-0.12 0 -0.28 0.04 -0.4 0.04 c-0.04 -0.16 0.24 -0.04 0.28 -0.16 z M73.92 16.68 l0 0 c0.04 0.04 -0.04 0 0 0 z M78.72 16.72 l0 0 s-0.04 0 0 0 z M73.52000000000001 16.76 c-0.04 0.04 -0.04 0.08 -0.04 0.12 c-0.12 -0.16 -0.32 0.24 -0.32 -0.08 c0.16 -0.04 0.16 -0.08 0.36 -0.04 z M78.4 16.72 c0 0.12 -0.4 0.28 -0.36 0.04 c0.08 -0.04 0.28 -0.04 0.36 -0.04 z M78.48 16.76 c0 -0.04 0.08 0 0.08 -0.04 c-0.04 0 -0.08 0 -0.08 0.04 z M70.24000000000001 16.8 c-0.04 0.16 -0.12 0.16 -0.24 0.04 c0 -0.12 0.2 -0.12 0.24 -0.04 z M73.60000000000001 16.8 l0 0 c0.04 -0.04 0 -0.08 0 0 z M74.12 16.76 c0.08 0 0.04 0.12 0.04 0.16 c-0.08 0 -0.08 -0.12 -0.04 -0.16 z M68.80000000000001 16.8 c0.08 -0.04 0.08 0.04 0.08 0.08 c-0.04 0 -0.04 0.04 -0.04 0.04 c-0.04 0 -0.04 -0.08 -0.04 -0.12 z M73.60000000000001 16.8 l0 0 c-0.04 0.04 0 0.04 0 0 z M68.24000000000001 16.84 c0.08 0 0.04 0.12 0.08 0.2 c-0.2 -0.04 -0.24 0.12 -0.44 0.08 c-0.04 -0.32 0.32 0 0.36 -0.28 z M68.56 16.84 l0.08 0 l0 0.08 l-0.08 0 l0 -0.08 z M69.52000000000001 17.2 c0.04 -0.2 -0.16 -0.16 -0.04 -0.36 c0.16 0.12 0.08 0 0.28 0 c0.04 0.16 -0.04 0.16 0 0.32 c-0.16 -0.04 -0.12 0 -0.24 0.04 z M69.56 17.08 l0.12 0 l0 -0.08 l-0.12 0 l0 0.08 z M72.76 16.88 c0 -0.04 0.04 -0.04 0.08 -0.04 c0 0.04 -0.04 0.04 -0.08 0.04 z M85.36000000000001 16.88 c0.04 -0.16 0.04 0.2 0 0 l0 0 z M69.32000000000001 17.08 c-0.04 0 -0.04 -0.04 -0.04 -0.08 c-0.04 0 0 0.12 -0.16 0.08 c-0.08 -0.24 0.44 -0.16 0.2 0 z M72.64 16.92 l0.12 0 l0 0.12 l-0.12 0 l0 -0.12 z M73.92 17 c0 -0.08 0.08 -0.08 0.08 0 c0 0.04 -0.04 0 -0.08 0 z M68.96000000000001 17.04 c0.04 -0.2 0.04 0.16 0 0 l0 0 z M68.68 17.04 c0.12 0.04 -0.04 0.16 -0.12 0.12 c-0.08 -0.16 0.16 0 0.12 -0.12 z M68.80000000000001 17.08 c0.04 -0.2 0.04 0.16 0 0 l0 0 z M72.56 17.08 l0 0 c0.04 0.04 -0.04 0 0 0 z M67.68 17.12 c0 0.08 -0.24 0.08 -0.16 -0.04 l0.12 0 c0 0.04 0 0.04 0.04 0.04 z M67.68 17.12 c0.08 -0.12 0.24 0.08 0 0 l0 0 z M67.44000000000001 17.16 c0 0.08 -0.16 0.08 -0.2 0.04 c0.08 -0.08 0.12 -0.04 0.2 -0.04 z M68.32000000000001 17.16 l0 0 l0 0 z M67.12 17.16 c0.2 0.12 -0.12 0.12 0 0 l0 0 z M68.16000000000001 17.16 c0.04 0.2 -0.24 0.04 -0.28 0.16 c-0.08 -0.08 0.12 -0.16 0.28 -0.16 z M69.24000000000001 17.2 c0.12 -0.08 -0.12 0.16 0 0 l0 0 z M67.04 17.2 c-0.16 0.12 -0.4 0.16 -0.6 0.28 l0 -0.24 c0.32 -0.04 0.44 0 0.6 -0.04 z M69.04 17.36 c-0.16 0.08 -0.04 -0.12 -0.2 -0.08 c0 -0.12 0.24 -0.08 0.2 0.08 z M69.52000000000001 17.2 l0 0 c-0.08 0 0 0.04 0 0 z M67.44000000000001 17.24 c0.04 0 0.12 0.08 0.2 0.08 c-0.04 0.12 -0.28 0.08 -0.2 -0.08 z M83.44 17.28 c0.08 0 0.08 -0.04 0.2 -0.04 c0 0.12 -0.2 0.08 -0.2 0.2 c-0.08 -0.04 -0.08 -0.08 -0.16 -0.12 c0 -0.04 0.16 -0.12 0.16 -0.04 z M69.68 17.32 l0 0 c0.04 0.04 -0.04 0 0 0 z M82.52000000000001 17.56 c0.12 -0.2 0.4 -0.16 0.52 -0.2 c0 0.2 -0.32 0.04 -0.28 0.24 c-0.08 0.04 -0.2 0.04 -0.24 -0.04 z M83.08000000000001 17.32 l0.12 0 l0 0.12 l-0.12 0 l0 -0.12 z M66.08000000000001 17.44 l0 0 s-0.04 -0.04 0 0 z M68.4 17.44 c0.08 -0.16 0.12 0.16 0 0 l0 0 z M68.60000000000001 17.36 c0.12 0.04 0.2 0.28 0 0.24 c-0.08 -0.08 0.04 -0.08 0 -0.24 z M68.80000000000001 17.48 l0 0 c0.04 0.04 0 -0.04 0 0 z M65.80000000000001 17.52 l0 0 c-0.04 0.24 0.04 -0.2 0 0 z M68.12 17.52 l0 0 c0.04 0.04 -0.04 0 0 0 z M65.48 17.6 c0.04 -0.16 0.04 0.16 0 0 l0 0 z M66.44000000000001 17.6 l0 0 c0.04 0.04 0 0 0 0 z M68.2 17.56 c0.08 0.12 -0.2 0.12 -0.04 0.12 c0 0.04 -0.04 0.04 -0.04 0.04 l-0.12 0 l0 -0.12 c0.04 -0.04 0.12 -0.04 0.2 -0.04 z M69.12 17.56 c0.16 -0.08 0.16 0.2 0 0.12 l0 -0.12 z M82.52000000000001 17.56 c-0.08 0.12 -0.12 0.08 -0.32 0.12 c0 -0.16 0.16 -0.12 0.32 -0.12 z M66.36000000000001 17.68 c0.04 -0.2 0.04 0.12 0 0 l0 0 z M66.12 17.68 l0.08 0 l-0.08 0 z M67.12 17.68 l0 0 c0.04 0.04 0 0 0 0 z M67.76 17.68 c0 0 0.08 -0.04 0.12 0 c0.04 0 -0.16 0.08 -0.12 0 z M68.64 17.68 c0.08 0.04 0.12 0 0.2 0 c0.04 0.08 -0.12 0.04 -0.2 0.08 l0 -0.08 z M81.84 17.72 c0 -0.04 0.04 -0.08 0.12 -0.04 c0 0 -0.04 0.04 -0.12 0.04 z M82.04 17.68 l0 0 c0 0.04 -0.04 0 0 0 z M81.72 17.72 c0.04 -0.16 0.04 0.2 0 0 l0 0 z M66.84 17.72 l0.04 0 l0 0.08 l-0.04 0 l0 -0.08 z M67.32000000000001 17.76 c0.04 -0.16 0.04 0.2 0 0 l0 0 z M68.2 17.76 c0.08 -0.16 0.08 0.2 0 0 l0 0 z M68.52000000000001 17.76 l0 0 c0 0.04 -0.04 0 0 0 z M81.52000000000001 17.76 c0 -0.04 0.08 -0.04 0.12 -0.04 c0 0.04 -0.08 0.04 -0.12 0.04 z M81.84 17.72 l0 0 c-0.08 0.04 0 0.04 0 0 z M65.48 17.76 c0.08 0 0.16 0 0.16 0.12 l-0.16 0 l0 -0.12 z M67.24000000000001 17.76 c-0.04 0.12 -0.16 0.16 -0.36 0.16 c0.08 -0.12 0.24 -0.12 0.36 -0.16 z M81.36000000000001 17.8 l0 0 c0 0.04 -0.04 0 0 0 z M64.44000000000001 17.8 l0.08 0 l0 0.12 l-0.08 0 l0 -0.12 z M65.32000000000001 17.8 c0.04 0.16 -0.68 0.44 -0.72 0.2 c0.36 -0.04 0.48 -0.08 0.72 -0.2 z M81.08000000000001 17.8 l0.12 0 c0 0.12 -0.08 0.12 -0.16 0.12 c0 -0.04 0.04 -0.04 0.04 -0.12 z M87.56 17.96 c0.04 0 0.04 0 0.04 -0.04 c0.36 0 0.4 -0.16 0.72 -0.04 c-0.08 0.28 -0.48 0 -0.52 0.28 c-0.12 -0.12 -0.2 -0.08 -0.24 -0.2 z M66.68 17.92 c0.12 -0.2 0.08 0.16 0 0 l0 0 z M64.2 17.96 l0 0 c0.08 -0.04 0 -0.04 0 0 z M80.64000000000001 17.96 l0 0 c0.04 0.04 0 0 0 0 z M64.2 17.96 c0 0.08 -0.08 0.08 -0.04 0.2 c0.2 0 0.28 -0.16 0.4 -0.04 c-0.08 0.08 -0.36 0.08 -0.56 0.2 c-0.08 -0.12 0.2 -0.16 0 -0.2 c0 -0.12 0.08 -0.16 0.2 -0.16 z M65.92 17.96 c-0.04 0.08 -0.08 0.08 -0.16 0.08 c0.04 -0.04 0.08 -0.08 0.16 -0.08 z M65.96000000000001 17.96 c0.08 0.04 0.12 0.08 0.12 0.16 c-0.08 -0.04 -0.12 -0.08 -0.12 -0.16 z M66.96000000000001 18 c0.12 -0.08 0.12 0.2 0 0.16 l0 -0.16 z M65.08000000000001 18.12 c0.08 0.04 0.12 0.12 0.16 0.24 c-0.08 0 -0.08 0 -0.12 0.04 c-0.08 -0.12 -0.08 -0.2 -0.04 -0.28 z M65.72 18.16 c-0.08 0.08 -0.2 0.08 -0.28 0.16 c0 -0.12 0.08 -0.16 0.28 -0.16 z M66.60000000000001 18.16 c0.04 0 0.08 0 0.08 0.08 c-0.08 0.04 -0.08 -0.04 -0.08 -0.08 z M63.760000000000005 18.16 c0.08 0.04 0.2 0.04 0.16 0.2 l-0.16 0 l0 -0.2 z M66.32000000000001 18.2 l0 0 c0 0.04 -0.04 0 0 0 z M63.36000000000001 18.76 c0.04 -0.08 0.08 -0.12 0.08 -0.16 c-0.04 -0.08 -0.12 -0.08 -0.16 -0.12 c-0.08 0 -0.08 0.16 0 0.16 c-0.04 0.12 -0.24 -0.36 -0.28 -0.04 c-0.2 -0.12 0.04 -0.16 0.04 -0.24 c0.12 0.16 0.32 0.04 0.32 -0.16 c0.16 0.12 0.2 0.44 0 0.56 z M63.52 18.32 c0.04 -0.16 0.08 0.16 0 0 l0 0 z M65.56 18.36 c0.04 -0.08 0.12 -0.04 0.12 0 c-0.04 0.08 -0.04 0 -0.12 0 z M65.76 18.36 l0 0 c0.04 0.04 0 -0.04 0 0 z M64.84 18.36 c-0.04 0.12 -0.08 0.2 -0.2 0.24 c-0.04 -0.04 -0.04 -0.12 -0.04 -0.2 c0.12 0.04 0.12 -0.08 0.24 -0.04 z M64.48 18.44 c0.04 0.04 0.08 0.08 0.08 0.2 c-0.08 -0.04 -0.16 -0.12 -0.08 -0.2 z M64.32000000000001 18.56 c0.04 -0.16 0.12 0.12 0 0 l0 0 z M63.52 18.6 c0.12 -0.12 0.16 0.16 0.36 0.04 c-0.08 0.08 -0.2 0.12 -0.36 0.12 c0 -0.12 0.16 -0.12 0 -0.16 z M68 18.6 c0 0.04 -0.16 0 -0.16 0.08 c-0.12 -0.04 0.04 -0.12 0.16 -0.08 z M64.80000000000001 18.64 c-0.04 0.12 -0.12 0.12 -0.2 0.04 c0 -0.04 0.12 -0.04 0.2 -0.04 z M64.36 18.76 l0 0 c0.04 0 -0.04 -0.04 0 0 z M63.800000000000004 18.84 l0 0 c0 -0.08 -0.04 0 0 0 z M67.08000000000001 18.8 c0 0.08 -0.12 0 -0.12 0.08 c-0.12 -0.04 0.04 -0.12 0.12 -0.08 z M60.56 18.84 c0.04 0 0.08 0.04 0.08 0.04 c0.04 0.12 -0.16 0.08 -0.08 -0.04 z M63.800000000000004 18.84 c0.16 0 -0.04 0.2 0 0 l0 0 z M66.80000000000001 18.88 l0 0 c0.04 0.04 -0.04 0 0 0 z M66.64 18.88 c-0.04 0.08 -0.08 0.08 -0.2 0.12 c-0.04 -0.16 0.12 -0.08 0.2 -0.12 z M66.16000000000001 19.04 c0 -0.04 0.04 -0.04 0.08 -0.04 c0 0.04 -0.04 0.04 -0.08 0.04 z M60.00000000000001 19.08 c0 -0.04 0.08 -0.04 0.12 -0.04 c-0.04 0.04 -0.08 0.04 -0.12 0.04 z M63.040000000000006 19.12 c0 -0.04 0.04 -0.04 0.04 -0.08 l0.12 0 l0 0.16 c-0.08 -0.04 -0.12 -0.08 -0.16 -0.08 z M65.92 19.12 c0 -0.04 0.04 -0.04 0.08 -0.04 c0 0.04 -0.08 0.04 -0.08 0.04 z M65.48 19.12 c0.16 0.16 -0.2 0.12 0 0 l0 0 z M59.28000000000001 19.28 l0 0 c0.04 0.04 -0.04 0 0 0 z M65.2 19.28 c0 -0.04 0.08 -0.04 0.12 -0.04 c0 0.04 -0.08 0.04 -0.12 0.04 z M59.160000000000004 19.48 c-0.08 -0.04 -0.28 0.04 -0.24 -0.12 c0.08 0.04 0.12 0.08 0.12 -0.04 c0.08 0 0.16 0.04 0.12 0.16 z M61.760000000000005 19.36 l0 0 c0.04 0.04 0 0 0 0 z M62.120000000000005 19.32 c0.08 0.04 0 0.08 0 0.16 c-0.04 -0.04 0 -0.08 0 -0.16 z M64.76 19.36 c-0.36 0.2 -0.76 0.28 -1.24 0.32 c0.36 -0.16 0.84 -0.2 1.24 -0.32 z M58.760000000000005 19.48 l0 0 c0.04 -0.04 -0.04 -0.08 0 0 z M61.800000000000004 19.44 c0.16 -0.04 0.12 0.04 0.24 0.04 c0 0.04 -0.2 0.12 -0.24 0.04 l0 -0.08 z M58.760000000000005 19.48 c0.04 0.16 -0.2 -0.04 0 0 l0 0 z M61.60000000000001 19.6 c0.12 -0.08 -0.12 0.12 0 0 l0 0 z M55.52 22.52 l0 0 c0.04 0 -0.04 -0.04 0 0 z M55.32000000000001 22.6 c-0.04 0.08 -0.08 0.08 -0.16 0.08 c0 -0.08 0.08 -0.08 0.16 -0.08 z M63.440000000000005 26.16 l0 0 c0 0.04 -0.04 0 0 0 z M63.040000000000006 29.119999999999997 l0 0 c0.04 0.04 0 0 0 0 z M63.040000000000006 29.2 c0.2 0.08 0.04 0.52 0.08 0.8 c-0.08 -0.24 -0.16 -0.6 -0.08 -0.8 z M63.080000000000005 30.2 c0.12 -0.08 0 0.4 0 0 l0 0 z M63.080000000000005 30.72 l0 0 c0.04 0 0 -0.04 0 0 z M63.120000000000005 31.119999999999997 l0 0 c0.04 0 0 0 0 0 z M64.08000000000001 32.56 c0.08 0.12 0.28 0.64 -0.08 0.6 c0.2 -0.16 -0.04 -0.36 0.08 -0.6 z M73.58 37.4 c-0.04 0.68 0.68 1.44 0.24 2.16 c-0.52 0.32 -0.84 0.08 -1.08 -0.28 c-0.28 -0.32 -0.36 -0.2 -0.4 -0.6 c-0.04 -0.84 0.56 -1.28 1.24 -1.28 z"></path></g></svg>